<svg width="121" height="29" viewBox="0 0 121 29" fill="none" xmlns="http://www.w3.org/2000/svg">
<path d="M9.36 3.72L2.52 4.04C2.09333 4.04 1.65333 3.76 1.2 3.2C0.746667 2.64 0.52 2.09333 0.52 1.56C0.52 1.08 1.28 0.773331 2.8 0.639998C4.34667 0.506665 7.72 0.439998 12.92 0.439998C15.6133 0.439998 17.8267 0.733332 19.56 1.32C21.32 1.90667 22.2 2.56 22.2 3.28C22.2 3.78667 21.76 4.04 20.88 4.04C20 4.04 18.7733 3.98667 17.2 3.88C15.6267 3.77333 14.12 3.70667 12.68 3.68C12.76 3.94667 12.8 4.24 12.8 4.56C12.8 5.54667 11.76 10.1333 9.68 18.32C9.46667 19.1733 9.14667 20.5067 8.72 22.32C8.29333 24.1333 7.97333 25.4 7.76 26.12C7.38667 27.5333 7.05333 28.24 6.76 28.24C6.36 28.24 5.90667 27.9467 5.4 27.36C4.92 26.7467 4.68 26.1333 4.68 25.52C4.68 24.9067 5.4 21.76 6.84 16.08C8.28 10.3733 9.12 6.25333 9.36 3.72ZM38.2063 0.279998C38.8996 0.279998 39.6063 0.719998 40.3263 1.6C41.0729 2.48 41.4462 3.21333 41.4462 3.8C41.4462 4.36 41.3396 4.64 41.1263 4.64C40.9396 4.64 40.5663 4.54667 40.0063 4.36C39.4463 4.14667 38.9396 4.04 38.4863 4.04C37.4463 4.04 36.1796 4.57333 34.6863 5.64C33.2196 6.70667 31.8196 8.02667 30.4863 9.6C29.1796 11.1733 28.0596 12.9733 27.1263 15C26.1929 17 25.7263 18.7333 25.7263 20.2C25.7263 21.6667 26.0996 22.7467 26.8463 23.44C27.6196 24.1067 28.6196 24.44 29.8463 24.44C31.0729 24.44 32.3396 24.2667 33.6463 23.92C34.9529 23.5467 36.0196 23.1333 36.8463 22.68C38.9796 21.5333 40.1529 20.96 40.3663 20.96C40.8196 20.96 41.0463 21.2667 41.0463 21.88C41.0463 22.4667 40.4329 23.2667 39.2063 24.28C37.9796 25.2667 36.4596 26.16 34.6463 26.96C32.8329 27.76 31.2063 28.16 29.7663 28.16C27.8996 28.16 26.1396 27.36 24.4863 25.76C22.8329 24.1333 22.0063 22.3467 22.0063 20.4C22.0063 17.8933 22.8196 15.0667 24.4463 11.92C26.0996 8.74667 28.2063 6.01333 30.7663 3.72C33.3529 1.42666 35.8329 0.279998 38.2063 0.279998ZM65.4463 0.159999C67.9529 0.159999 70.6196 0.813332 73.4463 2.12C76.2996 3.42667 78.7529 5.24 80.8063 7.56C82.8596 9.85333 83.8863 12.24 83.8863 14.72C83.8863 16.3467 82.7529 18.2667 80.4863 20.48C78.2463 22.6667 75.6463 24.5467 72.6863 26.12C69.7263 27.6667 67.2729 28.44 65.3263 28.44C64.8196 28.44 64.2329 28.0133 63.5663 27.16C62.9263 26.28 62.6063 25.4 62.6063 24.52C62.6063 23.6133 63.3796 20.3867 64.9263 14.84C66.4729 9.29333 67.3129 5.64 67.4463 3.88C66.5929 3.53333 65.9129 3.08 65.4063 2.52C64.8996 1.96 64.6463 1.42667 64.6463 0.919999C64.6463 0.413333 64.9129 0.159999 65.4463 0.159999ZM80.2063 14.28C80.2063 12.6267 79.2196 10.84 77.2463 8.92C75.2729 6.97333 72.9796 5.57333 70.3663 4.72C70.4996 5.2 70.5663 5.77333 70.5663 6.44C70.5663 7.08 70.3263 8.29333 69.8463 10.08C69.3929 11.8667 68.5529 14.8533 67.3263 19.04C66.8196 20.8 66.4063 22.7333 66.0863 24.84C67.9263 24.6 69.9796 23.8 72.2463 22.44C74.5396 21.0533 76.4329 19.5733 77.9263 18C79.4463 16.4267 80.2063 15.1867 80.2063 14.28ZM102.388 15.2C102.388 16.6133 101.614 17.7733 100.068 18.68C98.5475 19.56 96.8142 20 94.8675 20C92.9475 20 91.2008 19.7867 89.6275 19.36C89.2542 20.5333 89.0675 21.5867 89.0675 22.52C89.0675 23.4267 89.3475 24.1333 89.9075 24.64C90.4942 25.1467 91.4408 25.4 92.7475 25.4C94.0808 25.4 95.4408 25.1733 96.8275 24.72C98.2408 24.24 99.0142 24 99.1475 24C99.8408 24 100.188 24.2667 100.188 24.8C100.188 25.52 99.3742 26.3067 97.7475 27.16C96.1208 27.9867 94.5342 28.4 92.9875 28.4C90.9075 28.4 89.2142 27.7867 87.9075 26.56C86.6008 25.3067 85.9475 23.7333 85.9475 21.84C85.9475 19.9467 86.4542 17.9733 87.4675 15.92C88.4808 13.84 89.7875 12.0933 91.3875 10.68C92.9875 9.26667 94.5742 8.56 96.1475 8.56C97.7208 8.56 99.1475 9.30667 100.428 10.8C101.734 12.2933 102.388 13.76 102.388 15.2ZM96.3475 11.72C95.3608 11.72 94.3342 12.24 93.2675 13.28C92.2008 14.2933 91.2942 15.56 90.5475 17.08C91.6142 17.32 92.8275 17.44 94.1875 17.44C95.5475 17.44 96.7342 17.2267 97.7475 16.8C98.7608 16.3467 99.2675 15.76 99.2675 15.04C99.2675 14.32 98.9342 13.5867 98.2675 12.84C97.6275 12.0933 96.9875 11.72 96.3475 11.72ZM118.235 8.56C118.689 8.56 119.129 8.73333 119.555 9.08C119.982 9.4 120.195 9.76 120.195 10.16C120.195 10.88 119.222 13.3733 117.275 17.64C115.355 21.9067 113.982 24.7867 113.155 26.28C112.355 27.7467 111.649 28.48 111.035 28.48C110.689 28.48 110.262 28.2267 109.755 27.72C109.249 27.2133 108.875 26.6667 108.635 26.08C107.915 24.4 107.142 21.6933 106.315 17.96C105.489 14.2267 105.075 11.4933 105.075 9.76C105.075 8.96 105.315 8.56 105.795 8.56C106.382 8.56 106.982 8.81333 107.595 9.32C108.209 9.8 108.635 10.4133 108.875 11.16C108.955 11.5867 109.062 12.6533 109.195 14.36C109.569 18.5733 110.209 21.8133 111.115 24.08C111.835 22.5333 112.755 20.3467 113.875 17.52C114.995 14.6667 115.902 12.4667 116.595 10.92C117.315 9.34667 117.862 8.56 118.235 8.56Z" fill="black"/>
</svg>
