<svg width="488" height="417" viewBox="0 0 488 417" fill="none" xmlns="http://www.w3.org/2000/svg">
<path opacity="0.2" d="M15.8989 204.617C15.688 204.479 15.7407 204.385 15.8989 204.617V204.617Z" fill="black"/>
<path opacity="0.2" d="M114.529 195.322C113.944 198.839 112.396 202.125 110.056 204.817C107.717 207.508 104.677 209.499 101.274 210.57L98.6586 211.424C89.2521 224.733 72.7591 230.392 58.7021 222.162L54.5894 219.749L43.0738 206.049H42.9367C39.288 206.808 35.1647 206.25 32.4651 203.678C32.3581 204.243 32.1167 204.774 31.7611 205.227C31.4055 205.679 30.9462 206.039 30.422 206.276C29.8979 206.513 29.3242 206.621 28.7496 206.59C28.175 206.559 27.6162 206.391 27.1206 206.099C26.6249 205.806 26.2069 205.399 25.9019 204.912C25.5968 204.424 25.4137 203.87 25.368 203.297C25.3223 202.724 25.4154 202.148 25.6393 201.618C25.8632 201.089 26.2115 200.621 26.6546 200.254C24.3346 202.298 20.7492 201.36 18.5135 199.126C18.4172 192.987 19.1262 186.861 20.6226 180.906C21.5323 177.237 22.7239 173.644 24.187 170.158C25.3018 167.51 26.5657 164.928 27.9728 162.423C28.0782 162.212 28.2048 161.991 28.3313 161.78C30.4256 158.112 32.7687 154.591 35.344 151.243L36.6727 150.041C37.7273 149.124 38.6869 148.229 39.7098 147.322L39.8996 147.154C41.5306 145.749 43.1863 144.344 44.8665 142.939C47.4501 140.778 50.0759 138.66 52.7228 136.553L52.9864 136.342C55.2537 134.551 57.5421 132.77 59.8199 130.999L63.2577 128.344C63.948 128.427 64.627 128.586 65.2824 128.818C68.098 129.798 68.5831 132.38 70.5551 134.15C73.1493 136.521 75.638 132.538 79.6347 132.664C91.9201 133.044 87.1535 145.636 93.1539 144.056C119.064 137.227 114.709 170.347 103.446 177.619C110.09 183.067 115.816 186.702 114.529 195.322Z" fill="#113600"/>
<path d="M58.8183 226.809C82.9532 226.809 102.518 207.499 102.518 183.678C102.518 159.857 82.9532 140.547 58.8183 140.547C34.6834 140.547 15.1182 159.857 15.1182 183.678C15.1182 207.499 34.6834 226.809 58.8183 226.809Z" fill="white" stroke="black" stroke-width="1.04514" stroke-miterlimit="10"/>
<path d="M58.8181 221.256C80.8214 221.256 98.6586 203.648 98.6586 181.929C98.6586 160.209 80.8214 142.602 58.8181 142.602C36.8147 142.602 18.9775 160.209 18.9775 181.929C18.9775 203.648 36.8147 221.256 58.8181 221.256Z" fill="black" stroke="white" stroke-width="1.04514" stroke-miterlimit="10"/>
<path d="M16.0044 197.43C13.4946 198.989 12.7775 204.226 14.7495 206.503C16.7215 208.779 20.5073 207.019 21.2771 203.478C21.3447 203.69 21.4708 203.879 21.6409 204.022C21.8111 204.166 22.0183 204.258 22.2388 204.289C22.4592 204.32 22.6839 204.288 22.8869 204.197C23.0899 204.105 23.263 203.959 23.3862 203.773C23.5853 203.443 23.7025 203.07 23.7282 202.685C23.7539 202.3 23.6872 201.914 23.5338 201.56C23.344 201.402 23.4178 201.286 23.5338 201.56C24.8204 202.614 27.0349 201.466 27.3407 199.284C26.4022 205.08 31.6749 210.138 35.5556 207.188C34.4062 209.653 35.9141 212.889 37.9178 213.51C39.9214 214.132 42.0727 212.952 43.9919 211.645C45.9112 210.338 47.8832 208.831 49.9817 208.737C51.8061 208.652 53.5039 209.685 55.2544 210.296C60.8013 212.225 67.2973 209.664 71.5365 203.858C74.3416 208.652 81.2488 206.882 83.1365 200.918C83.5266 203.71 85.4353 205.839 87.5761 205.86C89.7168 205.881 91.8575 203.815 92.5957 201.044C92.5957 203.689 95 204.985 96.6873 203.289C97.8596 202.069 98.6991 200.569 99.1256 198.933C99.5521 197.296 99.5513 195.578 99.1233 193.942C101.992 193.826 104.776 190.496 105.208 186.639C105.64 182.782 103.7 178.904 100.927 178.145C105.693 176.175 109.363 169.715 109.595 163.087C109.827 156.459 106.368 150.347 101.696 148.808C100.792 148.448 99.8022 148.362 98.8496 148.561C97.8969 148.76 97.0239 149.234 96.3393 149.925C95.7804 146.163 94.072 142.802 91.5517 141.116C87.5444 138.408 81.9659 140.262 78.9816 145.331C79.7006 143.977 80.0957 142.475 80.136 140.943C80.1762 139.411 79.8605 137.89 79.2136 136.5C77.8848 134.045 75.2485 133.054 73.0129 134.214C72.5383 130.178 69.4169 127.311 66.3693 128.091C63.3216 128.871 60.8646 133.191 61.0966 137.269C60.8118 133.982 56.8784 133.17 55.5286 135.931C55.4653 136.037 55.6446 136.184 55.5286 135.931C53.5882 131.864 49.6443 129.777 45.985 130.968C42.0938 132.243 38.8247 137.122 38.3185 142.454C37.0073 141.268 35.2883 140.633 33.5201 140.682C31.752 140.731 30.071 141.46 28.8276 142.717C25.9487 145.31 24.2826 150.241 24.7887 154.646C21.7622 151.664 16.6688 153.297 14.5913 157.913C12.5139 162.529 13.9375 169.062 17.4492 171.001C15.0343 171.37 12.9041 174.573 12.9041 177.819C12.9041 181.064 15.0132 183.846 17.4702 183.762C15.0237 183.973 12.7143 186.86 12.3557 190.137C11.9972 193.415 13.6423 196.713 16.0044 197.43Z" fill="#113600"/>
<g opacity="0.2">
<path d="M56.1712 182.318C55.6117 181.805 54.9327 181.44 54.196 181.256C53.4593 181.072 52.6883 181.075 51.953 181.265C51.1296 181.586 50.4045 182.117 49.8496 182.804C49.2946 183.492 48.9292 184.313 48.7894 185.185C48.452 187.092 49.3378 189.2 50.793 189.558C52.5752 190.001 54.3996 188.009 56.2134 188.23C56.8516 188.381 57.476 188.586 58.0799 188.841C60.6846 189.568 63.3526 187.229 65.525 185.037C66.3666 184.283 67.079 183.397 67.634 182.413C67.9201 181.887 68.0923 181.306 68.1396 180.709C68.1868 180.112 68.108 179.511 67.9082 178.946C67.2755 177.524 65.6937 177.408 64.365 177.682C61.5178 178.328 58.9397 179.837 56.9832 182.002C57.057 181.465 57.1308 180.949 57.2152 180.401L56.1712 182.318Z" fill="white"/>
<path d="M94.2615 177.123C93.6225 176.497 92.8514 176.022 92.0048 175.732C91.547 175.627 91.0672 175.673 90.6375 175.863C90.2078 176.053 89.8513 176.377 89.6216 176.786C89.296 177.426 89.178 178.151 89.2838 178.862C89.3897 179.572 89.7141 180.231 90.2121 180.748C91.147 181.51 92.3069 181.944 93.5128 181.981C94.715 182.139 96.2335 182.108 96.8557 180.706C97.0497 180.201 97.105 179.654 97.016 179.12C96.927 178.586 96.6969 178.086 96.3495 177.671C95.7006 177.027 94.893 176.566 94.0084 176.333L94.2615 177.123Z" fill="white"/>
<path d="M34.6376 155.595C33.3222 156.472 32.2002 157.609 31.3407 158.935C30.4811 160.262 29.902 161.75 29.639 163.308C29.4492 164.299 29.4492 165.542 30.1241 166.027C30.3763 166.159 30.6567 166.228 30.9414 166.228C31.2261 166.228 31.5065 166.159 31.7587 166.027L38.7608 163.498C37.5713 164.063 36.4983 164.846 35.5972 165.806C35.1061 166.366 34.7394 167.024 34.5213 167.736C34.3032 168.448 34.2386 169.198 34.3317 169.937C34.4458 170.681 34.8328 171.356 35.4175 171.832C36.0022 172.307 36.7428 172.548 37.4954 172.508C38.9951 172.232 40.3583 171.46 41.3655 170.316C42.7774 169.136 43.6769 167.455 43.8753 165.627C43.8753 163.73 42.0826 162.075 40.9121 163.361C43.6846 162.199 46.2327 160.562 48.4415 158.524C49.3461 157.77 50.0947 156.846 50.6455 155.805C50.939 155.253 51.1158 154.646 51.1648 154.022C51.2138 153.399 51.1339 152.772 50.9302 152.18C48.6524 146.817 45.4993 155.078 44.023 155.89C41.2495 157.428 38.1914 153.508 34.6376 155.595Z" fill="white"/>
<path d="M23.3752 179.779C23.2173 180.292 23.1857 180.836 23.283 181.365C23.3803 181.893 23.6036 182.39 23.9341 182.814C24.1121 182.969 24.3271 183.076 24.5584 183.123C24.7898 183.171 25.0295 183.158 25.2544 183.086C25.4793 183.014 25.6818 182.885 25.8422 182.712C26.0025 182.539 26.1154 182.327 26.1698 182.097C24.4521 182.705 22.9741 183.846 21.9516 185.353C20.8971 187.081 21.1396 189.979 22.6792 190.527C23.6389 190.875 24.6723 190.201 25.5792 189.526C28.1876 187.568 30.6317 185.401 32.8872 183.046C32.7306 183.504 32.6758 183.99 32.7267 184.472C32.7776 184.953 32.933 185.418 33.1819 185.833C33.4309 186.248 33.7675 186.605 34.1683 186.877C34.569 187.149 35.0243 187.33 35.5024 187.408C37.2319 187.492 38.877 186.207 40.385 184.963C42.2304 183.435 44.3606 181.159 43.9282 178.546C43.853 178.062 43.6661 177.601 43.3823 177.201C43.0984 176.802 42.7255 176.473 42.2928 176.242C41.8602 176.011 41.3797 175.884 40.8894 175.871C40.399 175.857 39.9123 175.958 39.4675 176.164C37.6748 176.955 36.3039 178.862 35.0279 180.696C36.0824 178.82 34.701 176.217 32.9926 176.027C31.2843 175.838 29.6603 177.229 28.5952 178.851C30.5567 177.376 31.0523 173.825 28.4687 173.583C26.7603 173.414 23.8181 177.998 23.3752 179.779Z" fill="white"/>
<path d="M76.6717 168.609C75.2165 167.998 73.3605 169.325 72.9387 171.275C72.5169 173.224 73.603 175.353 75.1321 175.553C74.5185 175.686 73.9379 175.941 73.4252 176.303C72.9124 176.665 72.478 177.127 72.1478 177.661C71.6903 178.322 71.4574 179.112 71.4834 179.916C71.5346 180.427 71.7708 180.902 72.1475 181.251C72.5242 181.6 73.0155 181.8 73.5292 181.813C74.5246 181.682 75.4674 181.29 76.2605 180.675C75.2633 180.756 74.3196 181.159 73.5714 181.823C73.1703 182.234 72.9102 182.762 72.8287 183.33C72.7472 183.898 72.8485 184.478 73.118 184.985C73.6663 185.659 74.5838 185.48 75.343 185.164C77.1528 184.38 78.7398 183.16 79.9619 181.612C80.3358 182.262 80.8972 182.784 81.5728 183.109C82.2483 183.434 83.0064 183.548 83.7477 183.436C84.5461 183.123 85.2094 182.541 85.6218 181.79C86.0343 181.038 86.1697 180.166 86.0044 179.326C85.8811 178.785 85.5907 178.297 85.1744 177.93C84.758 177.563 84.2368 177.336 83.6844 177.281C82.6203 177.275 81.5732 177.548 80.6474 178.072C81.8013 177.145 82.668 175.91 83.1466 174.51C83.5368 172.993 82.7775 171.043 81.5543 171.233C80.1728 171.454 79.4452 173.888 78.3274 174.816C77.0092 173.309 79.5823 169.821 76.6717 168.609Z" fill="white"/>
<path d="M51.9852 162.824C50.4034 164.267 49.8023 166.965 49.8761 169.368C49.9394 172.023 50.8358 174.805 52.7339 175.753C55.2226 176.997 58.4179 174.141 58.9452 170.664C59.1956 169.075 58.9908 167.448 58.3544 165.971C57.718 164.494 56.6761 163.228 55.3492 162.318C54.8023 162.055 54.1892 161.963 53.5893 162.054C52.9895 162.144 52.4306 162.412 51.9852 162.824Z" fill="white"/>
<path d="M69.6173 158.883L70.25 159.557C70.0119 159.173 69.6831 158.853 69.2924 158.625C68.9018 158.398 68.4612 158.27 68.0093 158.252C67.5575 158.234 67.1082 158.328 66.7009 158.524C66.2936 158.72 65.9408 159.013 65.6733 159.378C65.0388 160.217 64.685 161.235 64.6623 162.287C64.6396 163.339 64.9491 164.371 65.5468 165.237C65.8636 165.563 66.2537 165.809 66.6847 165.954C67.1157 166.099 67.5751 166.139 68.0247 166.071C68.4744 166.003 68.9013 165.829 69.27 165.563C69.6387 165.297 69.9385 164.946 70.1446 164.541C71.1026 165.015 72.2049 165.108 73.2287 164.801C74.2525 164.494 75.1214 163.81 75.6598 162.887C76.978 160.853 76.7144 157.439 75.0377 156.29C73.3609 155.142 70.6297 157.186 70.8195 159.715L70.0813 158.661L69.6173 158.883Z" fill="white"/>
<path d="M88.9465 161.686C87.5169 163.285 86.4614 165.182 85.8567 167.239C85.361 169.42 86.057 172.107 87.7443 172.508C89.4315 172.908 91.0344 171.085 92.0363 169.188C93.069 167.483 93.4685 165.468 93.1646 163.498C92.7006 161.633 90.581 160.642 89.4843 162.17L88.9465 161.686Z" fill="white"/>
<path d="M61.2222 150.421C61.107 150.031 60.8955 149.676 60.6072 149.389C60.3189 149.102 59.963 148.893 59.5723 148.779C59.1816 148.666 58.7687 148.653 58.3715 148.741C57.9743 148.829 57.6056 149.015 57.2994 149.283C56.6303 149.964 56.1547 150.811 55.9212 151.737C55.6877 152.663 55.7048 153.634 55.9706 154.551C56.1818 155.359 56.6321 156.083 57.2624 156.631C57.8928 157.178 58.6739 157.522 59.5033 157.618C60.0447 157.609 60.5784 157.488 61.0702 157.262C61.562 157.035 62.001 156.709 62.3594 156.303C62.7177 155.897 62.9873 155.422 63.151 154.906C63.3148 154.39 63.369 153.846 63.3102 153.308C63.6779 153.909 64.224 154.38 64.8724 154.656C65.5208 154.931 66.2391 154.998 66.9273 154.846C68.345 154.472 69.6558 153.772 70.7553 152.802C72.3793 151.527 74.1193 149.641 73.9927 147.27C73.9788 146.459 73.6725 145.679 73.1302 145.076C72.5878 144.472 71.8457 144.083 71.04 143.982C70.2442 144.02 69.4667 144.234 68.763 144.607C68.0593 144.981 67.4469 145.505 66.9695 146.142C66.0731 147.143 65.3244 148.376 64.3542 149.304C63.384 150.231 62.087 150.726 61.0851 150.094L61.2222 150.421Z" fill="white"/>
</g>
<path d="M378.882 215.681H135.631V318.055H378.882V215.681Z" fill="url(#paint0_linear_1189_881)" stroke="black" stroke-width="1.04514" stroke-linecap="round" stroke-linejoin="round"/>
<path d="M163.597 221.877H140.714V234.533H163.597V221.877Z" fill="white" stroke="black" stroke-width="1.04514" stroke-miterlimit="10"/>
<path d="M373.25 283.586H337.206V296.242H373.25V283.586Z" fill="white" stroke="black" stroke-width="1.04514" stroke-miterlimit="10"/>
<path d="M373.251 237.684H351V250.34H373.251V237.684Z" fill="white" stroke="black" stroke-width="1.04514" stroke-miterlimit="10"/>
<path d="M163.597 267.98H140.714V280.636H163.597V267.98Z" fill="white" stroke="black" stroke-width="1.04514" stroke-miterlimit="10"/>
<path d="M159.242 252.732H140.714V265.388H159.242V252.732Z" fill="white" stroke="black" stroke-width="1.04514" stroke-miterlimit="10"/>
<path d="M153.379 237.304H140.714V249.96H153.379V237.304Z" fill="white" stroke="black" stroke-width="1.04514" stroke-miterlimit="10"/>
<path d="M169.556 237.304H156.891V249.96H169.556V237.304Z" fill="white" stroke="black" stroke-width="1.04514" stroke-miterlimit="10"/>
<path d="M185.722 237.304H173.057V249.96H185.722V237.304Z" fill="white" stroke="black" stroke-width="1.04514" stroke-miterlimit="10"/>
<path d="M201.888 237.304H189.223V249.96H201.888V237.304Z" fill="white" stroke="black" stroke-width="1.04514" stroke-miterlimit="10"/>
<path d="M218.064 237.304H205.399V249.96H218.064V237.304Z" fill="white" stroke="black" stroke-width="1.04514" stroke-miterlimit="10"/>
<path d="M234.23 237.304H221.565V249.96H234.23V237.304Z" fill="white" stroke="black" stroke-width="1.04514" stroke-miterlimit="10"/>
<path d="M250.396 237.304H237.731V249.96H250.396V237.304Z" fill="white" stroke="black" stroke-width="1.04514" stroke-miterlimit="10"/>
<path d="M266.573 237.304H253.908V249.96H266.573V237.304Z" fill="white" stroke="black" stroke-width="1.04514" stroke-miterlimit="10"/>
<path d="M282.739 237.304H270.074V249.96H282.739V237.304Z" fill="white" stroke="black" stroke-width="1.04514" stroke-miterlimit="10"/>
<path d="M298.905 237.304H286.24V249.96H298.905V237.304Z" fill="white" stroke="black" stroke-width="1.04514" stroke-miterlimit="10"/>
<path d="M315.082 237.304H302.417V249.96H315.082V237.304Z" fill="white" stroke="black" stroke-width="1.04514" stroke-miterlimit="10"/>
<path d="M331.248 237.304H318.583V249.96H331.248V237.304Z" fill="white" stroke="black" stroke-width="1.04514" stroke-miterlimit="10"/>
<path d="M347.425 237.304H334.76V249.96H347.425V237.304Z" fill="white" stroke="black" stroke-width="1.04514" stroke-miterlimit="10"/>
<path d="M153.379 299.203H140.714V311.859H153.379V299.203Z" fill="white" stroke="black" stroke-width="1.04514" stroke-miterlimit="10"/>
<path d="M169.556 299.203H156.891V311.859H169.556V299.203Z" fill="white" stroke="black" stroke-width="1.04514" stroke-miterlimit="10"/>
<path d="M185.722 299.203H173.057V311.859H185.722V299.203Z" fill="white" stroke="black" stroke-width="1.04514" stroke-miterlimit="10"/>
<path d="M204.682 299.203H189.223V311.859H204.682V299.203Z" fill="white" stroke="black" stroke-width="1.04514" stroke-miterlimit="10"/>
<path d="M285.534 299.203H208.184V311.859H285.534V299.203Z" fill="white" stroke="black" stroke-width="1.04514" stroke-miterlimit="10"/>
<path d="M324.203 299.203H311.538V311.859H324.203V299.203Z" fill="white" stroke="black" stroke-width="1.04514" stroke-miterlimit="10"/>
<path d="M340.37 299.203H327.705V311.859H340.37V299.203Z" fill="white" stroke="black" stroke-width="1.04514" stroke-miterlimit="10"/>
<path d="M356.567 299.203H343.902V311.859H356.567V299.203Z" fill="white" stroke="black" stroke-width="1.04514" stroke-miterlimit="10"/>
<path d="M308.364 299.203H288.697V311.859H308.364V299.203Z" fill="white" stroke="black" stroke-width="1.04514" stroke-miterlimit="10"/>
<path d="M373.25 299.203H360.585V311.859H373.25V299.203Z" fill="white" stroke="black" stroke-width="1.04514" stroke-miterlimit="10"/>
<path d="M175.503 252.732H162.838V265.388H175.503V252.732Z" fill="white" stroke="black" stroke-width="1.04514" stroke-miterlimit="10"/>
<path d="M191.669 252.732H179.004V265.388H191.669V252.732Z" fill="white" stroke="black" stroke-width="1.04514" stroke-miterlimit="10"/>
<path d="M207.846 252.732H195.181V265.388H207.846V252.732Z" fill="white" stroke="black" stroke-width="1.04514" stroke-miterlimit="10"/>
<path d="M224.012 252.732H211.347V265.388H224.012V252.732Z" fill="white" stroke="black" stroke-width="1.04514" stroke-miterlimit="10"/>
<path d="M240.188 252.732H227.523V265.388H240.188V252.732Z" fill="white" stroke="black" stroke-width="1.04514" stroke-miterlimit="10"/>
<path d="M256.354 252.732H243.689V265.388H256.354V252.732Z" fill="white" stroke="black" stroke-width="1.04514" stroke-miterlimit="10"/>
<path d="M272.52 252.732H259.855V265.388H272.52V252.732Z" fill="white" stroke="black" stroke-width="1.04514" stroke-miterlimit="10"/>
<path d="M288.697 252.732H276.032V265.388H288.697V252.732Z" fill="white" stroke="black" stroke-width="1.04514" stroke-miterlimit="10"/>
<path d="M304.863 252.732H292.198V265.388H304.863V252.732Z" fill="white" stroke="black" stroke-width="1.04514" stroke-miterlimit="10"/>
<path d="M321.029 252.732H308.364V265.388H321.029V252.732Z" fill="white" stroke="black" stroke-width="1.04514" stroke-miterlimit="10"/>
<path d="M337.206 252.732H324.541V265.388H337.206V252.732Z" fill="white" stroke="black" stroke-width="1.04514" stroke-miterlimit="10"/>
<path d="M353.372 252.732H340.707V265.388H353.372V252.732Z" fill="white" stroke="black" stroke-width="1.04514" stroke-miterlimit="10"/>
<path d="M373.25 252.732V280.825H360.585V265.398H356.873V252.732H373.25Z" fill="white" stroke="black" stroke-width="1.04514" stroke-miterlimit="10"/>
<path d="M179.215 268.159H166.55V280.815H179.215V268.159Z" fill="white" stroke="black" stroke-width="1.04514" stroke-miterlimit="10"/>
<path d="M195.381 268.159H182.716V280.815H195.381V268.159Z" fill="white" stroke="black" stroke-width="1.04514" stroke-miterlimit="10"/>
<path d="M211.547 268.159H198.882V280.815H211.547V268.159Z" fill="white" stroke="black" stroke-width="1.04514" stroke-miterlimit="10"/>
<path d="M227.724 268.159H215.059V280.815H227.724V268.159Z" fill="white" stroke="black" stroke-width="1.04514" stroke-miterlimit="10"/>
<path d="M243.89 268.159H231.225V280.815H243.89V268.159Z" fill="white" stroke="black" stroke-width="1.04514" stroke-miterlimit="10"/>
<path d="M260.066 268.159H247.401V280.815H260.066V268.159Z" fill="white" stroke="black" stroke-width="1.04514" stroke-miterlimit="10"/>
<path d="M276.232 268.159H263.567V280.815H276.232V268.159Z" fill="white" stroke="black" stroke-width="1.04514" stroke-miterlimit="10"/>
<path d="M292.398 268.159H279.733V280.815H292.398V268.159Z" fill="white" stroke="black" stroke-width="1.04514" stroke-miterlimit="10"/>
<path d="M308.575 268.159H295.91V280.815H308.575V268.159Z" fill="white" stroke="black" stroke-width="1.04514" stroke-miterlimit="10"/>
<path d="M324.741 268.159H312.076V280.815H324.741V268.159Z" fill="white" stroke="black" stroke-width="1.04514" stroke-miterlimit="10"/>
<path d="M340.908 268.159H328.243V280.815H340.908V268.159Z" fill="white" stroke="black" stroke-width="1.04514" stroke-miterlimit="10"/>
<path d="M357.085 268.159H344.42V280.815H357.085V268.159Z" fill="white" stroke="black" stroke-width="1.04514" stroke-miterlimit="10"/>
<path d="M172.34 283.586H159.675V296.242H172.34V283.586Z" fill="white" stroke="black" stroke-width="1.04514" stroke-miterlimit="10"/>
<path d="M188.506 283.586H175.841V296.242H188.506V283.586Z" fill="white" stroke="black" stroke-width="1.04514" stroke-miterlimit="10"/>
<path d="M204.683 283.586H192.018V296.242H204.683V283.586Z" fill="white" stroke="black" stroke-width="1.04514" stroke-miterlimit="10"/>
<path d="M220.849 283.586H208.184V296.242H220.849V283.586Z" fill="white" stroke="black" stroke-width="1.04514" stroke-miterlimit="10"/>
<path d="M237.015 283.586H224.35V296.242H237.015V283.586Z" fill="white" stroke="black" stroke-width="1.04514" stroke-miterlimit="10"/>
<path d="M253.19 283.586H240.525V296.242H253.19V283.586Z" fill="white" stroke="black" stroke-width="1.04514" stroke-miterlimit="10"/>
<path d="M269.357 283.586H256.692V296.242H269.357V283.586Z" fill="white" stroke="black" stroke-width="1.04514" stroke-miterlimit="10"/>
<path d="M285.534 283.586H272.869V296.242H285.534V283.586Z" fill="white" stroke="black" stroke-width="1.04514" stroke-miterlimit="10"/>
<path d="M301.7 283.586H289.035V296.242H301.7V283.586Z" fill="white" stroke="black" stroke-width="1.04514" stroke-miterlimit="10"/>
<path d="M317.866 283.586H305.201V296.242H317.866V283.586Z" fill="white" stroke="black" stroke-width="1.04514" stroke-miterlimit="10"/>
<path d="M334.043 283.586H321.378V296.242H334.043V283.586Z" fill="white" stroke="black" stroke-width="1.04514" stroke-miterlimit="10"/>
<path d="M179.215 222.636H166.55V235.292H179.215V222.636Z" fill="white" stroke="black" stroke-width="1.04514" stroke-miterlimit="10"/>
<path d="M195.381 222.636H182.716V235.292H195.381V222.636Z" fill="white" stroke="black" stroke-width="1.04514" stroke-miterlimit="10"/>
<path d="M211.547 222.636H198.882V235.292H211.547V222.636Z" fill="white" stroke="black" stroke-width="1.04514" stroke-miterlimit="10"/>
<path d="M227.724 222.636H215.059V235.292H227.724V222.636Z" fill="white" stroke="black" stroke-width="1.04514" stroke-miterlimit="10"/>
<path d="M243.89 222.636H231.225V235.292H243.89V222.636Z" fill="white" stroke="black" stroke-width="1.04514" stroke-miterlimit="10"/>
<path d="M260.066 222.636H247.401V235.292H260.066V222.636Z" fill="white" stroke="black" stroke-width="1.04514" stroke-miterlimit="10"/>
<path d="M276.232 222.636H263.567V235.292H276.232V222.636Z" fill="white" stroke="black" stroke-width="1.04514" stroke-miterlimit="10"/>
<path d="M292.398 222.636H279.733V235.292H292.398V222.636Z" fill="white" stroke="black" stroke-width="1.04514" stroke-miterlimit="10"/>
<path d="M308.575 222.636H295.91V235.292H308.575V222.636Z" fill="white" stroke="black" stroke-width="1.04514" stroke-miterlimit="10"/>
<path d="M324.741 222.636H312.076V235.292H324.741V222.636Z" fill="white" stroke="black" stroke-width="1.04514" stroke-miterlimit="10"/>
<path d="M340.908 222.636H328.243V235.292H340.908V222.636Z" fill="white" stroke="black" stroke-width="1.04514" stroke-miterlimit="10"/>
<path d="M357.085 222.636H344.42V235.292H357.085V222.636Z" fill="white" stroke="black" stroke-width="1.04514" stroke-miterlimit="10"/>
<path d="M373.25 222.636H360.585V235.292H373.25V222.636Z" fill="white" stroke="black" stroke-width="1.04514" stroke-miterlimit="10"/>
<path d="M156.057 283.586H140.714V296.242H156.057V283.586Z" fill="white" stroke="black" stroke-width="1.04514" stroke-miterlimit="10"/>
<path d="M135.631 216.334L140.714 214.648H375.581L378.924 216.313L135.631 216.334Z" fill="black"/>
<path d="M276.824 291.901C275.601 292.869 274.555 294.042 273.734 295.368L276.824 291.901Z" fill="white"/>
<path d="M428.54 212.604C452.681 212.604 472.25 193.048 472.25 168.925C472.25 144.802 452.681 125.246 428.54 125.246C404.399 125.246 384.829 144.802 384.829 168.925C384.829 193.048 404.399 212.604 428.54 212.604Z" stroke="black" stroke-width="1.04514" stroke-linecap="round" stroke-linejoin="round"/>
<path opacity="0.2" d="M478.019 170.074C468.697 185.343 465.364 183.277 433.602 198.526C417.457 206.26 401.86 181.423 412.416 155.932C412.933 154.688 417.488 148.397 417.488 148.397C418.456 144.156 420.594 140.27 423.66 137.182C426.726 134.093 430.597 131.926 434.834 130.925C439.07 129.924 443.503 130.13 447.629 131.52C451.754 132.91 455.407 135.427 458.172 138.787C461.204 136.189 464.811 134.351 468.695 133.424C472.579 132.496 476.628 132.507 480.508 133.455C480.877 134.509 481.225 135.562 481.562 136.616C481.689 137.017 481.826 137.406 481.942 137.807C482.342 139.04 482.722 140.273 483.07 141.516C483.773 143.877 484.42 146.251 485.01 148.64C481.596 147.538 477.892 147.76 474.634 149.261C472.303 150.4 470.352 152.275 467.927 153.203C465.502 154.13 462.148 153.603 461.22 151.179C462.391 156.048 467.547 154.594 472.419 155.553C480.012 157.017 481.942 163.646 478.019 170.074Z" fill="url(#paint1_linear_1189_881)"/>
<path d="M463.667 162.539C463.667 162.539 471.491 161.485 475.203 162.044C476.99 162.294 478.614 163.213 479.748 164.615C480.067 165.016 480.255 165.505 480.286 166.017L480.708 172.128C480.732 172.472 480.684 172.818 480.568 173.142C480.452 173.467 480.27 173.764 480.033 174.015C478.504 175.606 473.896 178.504 460.25 179.547C441.026 181.012 463.667 162.539 463.667 162.539Z" fill="white" stroke="black" stroke-width="1.04514" stroke-linecap="round" stroke-linejoin="round"/>
<path d="M457.94 146.743C462.17 152.017 464.436 158.595 464.352 165.353C464.352 172.634 455.915 197.504 434.308 200.538C411.435 203.7 393.044 184.184 396.967 160.642C399.687 144.33 439.581 123.939 457.94 146.743Z" fill="white" stroke="black" stroke-width="1.04514" stroke-linecap="round" stroke-linejoin="round"/>
<path d="M429.995 195.069C448.323 195.069 463.181 181.014 463.181 163.677C463.181 146.34 448.323 132.285 429.995 132.285C411.667 132.285 396.809 146.34 396.809 163.677C396.809 181.014 411.667 195.069 429.995 195.069Z" fill="white"/>
<path d="M429.932 191.086C444.981 191.086 457.181 179.551 457.181 165.321C457.181 151.092 444.981 139.556 429.932 139.556C414.883 139.556 402.683 151.092 402.683 165.321C402.683 179.551 414.883 191.086 429.932 191.086Z" fill="black"/>
<path d="M463.181 163.677C463.181 146.343 448.323 132.296 429.995 132.296C411.667 132.296 396.809 146.385 396.809 163.677" stroke="black" stroke-width="1.04514" stroke-linecap="round" stroke-linejoin="round"/>
<path d="M454.439 184.922C460.031 179.261 463.174 171.632 463.192 163.677" stroke="black" stroke-width="1.04514" stroke-linecap="round" stroke-linejoin="round"/>
<path d="M406.753 186.081C413.074 191.895 421.361 195.106 429.953 195.069C435.295 195.082 440.568 193.859 445.36 191.497" stroke="black" stroke-width="1.04514" stroke-linecap="round" stroke-linejoin="round"/>
<path d="M401.965 180.485C402.397 181.138 402.861 181.771 403.336 182.382" stroke="black" stroke-width="1.04514" stroke-linecap="round" stroke-linejoin="round"/>
<path d="M396.809 163.677C396.807 168.327 397.89 172.913 399.972 177.071" stroke="black" stroke-width="1.04514" stroke-linecap="round" stroke-linejoin="round"/>
<path d="M478.694 172.276C478.694 172.276 472.778 168.135 463.171 171.886L478.694 172.276Z" fill="white"/>
<path d="M478.694 172.276C478.694 172.276 472.778 168.135 463.171 171.886" stroke="black" stroke-width="1.04514" stroke-linecap="round" stroke-linejoin="round"/>
<path d="M473.611 175.142C469.597 176.206 465.483 176.853 461.336 177.071L473.611 175.142Z" fill="white"/>
<path d="M473.611 175.142C469.597 176.206 465.483 176.853 461.336 177.071" stroke="black" stroke-width="1.04514" stroke-linecap="round" stroke-linejoin="round"/>
<path d="M476.679 173.836C476.227 174.163 475.73 174.422 475.203 174.605L476.679 173.836Z" fill="white"/>
<path d="M476.679 173.836C476.227 174.163 475.73 174.422 475.203 174.605" stroke="black" stroke-width="1.04514" stroke-linecap="round" stroke-linejoin="round"/>
<path d="M481.942 137.775C481.826 137.375 481.689 136.985 481.562 136.585C479.548 130.346 476.954 123.497 473.801 116.268C473.221 114.929 472.609 113.57 471.997 112.2L471.291 112.263C468.264 112.569 465.08 112.948 462.591 114.666C460.102 116.384 458.615 120.009 460.229 122.59C461.842 125.172 465.955 126.574 465.301 129.493C458.542 133.297 450.295 132.854 442.776 134.762C438.239 135.918 433.965 137.932 430.185 140.694C428.992 141.583 427.851 142.54 426.768 143.561C426.267 144.024 425.802 144.524 425.376 145.057C424.728 145.815 424.314 146.745 424.185 147.734C423.921 150.547 426.484 152.465 429.215 153.687C429.329 153.732 429.428 153.811 429.497 153.912C429.566 154.014 429.603 154.134 429.603 154.256C429.603 154.379 429.566 154.499 429.497 154.601C429.428 154.702 429.329 154.781 429.215 154.825C427.414 155.467 425.745 156.431 424.29 157.671C424.091 157.85 423.957 158.089 423.907 158.352C423.857 158.614 423.895 158.886 424.015 159.125C424.135 159.365 424.329 159.558 424.57 159.676C424.81 159.794 425.082 159.83 425.345 159.778H425.766C426.836 159.69 427.912 159.819 428.93 160.158C429.646 160.332 430.297 160.709 430.804 161.243C431.311 161.778 431.652 162.447 431.788 163.171C431.957 165.279 429.521 167.239 426.357 167.481C425.587 167.555 426.178 168.472 427.306 168.662C429.57 168.937 431.866 168.75 434.055 168.114C436.702 167.481 439.528 166.565 441.026 164.299C441.643 163.298 441.869 162.105 441.658 160.948C441.599 160.197 441.291 159.486 440.783 158.929C440.276 158.372 439.596 158 438.853 157.871C443.746 157.292 448.584 156.323 453.322 154.973L454.808 154.52C456.256 154.15 457.634 153.548 458.89 152.739C459.63 152.235 460.241 151.564 460.672 150.779C461.726 148.671 460.218 145.31 457.877 145.752C464.679 143.086 471.871 141.537 478.747 139.072C479.748 138.661 480.866 138.239 481.942 137.775Z" fill="white"/>
<path d="M433.961 36.1489L80.1943 37.7612L85.5409 29.7419C86.8091 27.8464 88.5251 26.2924 90.5373 25.2172C92.5495 24.142 94.7957 23.5788 97.0775 23.5773H417.194C419.266 23.5779 421.312 24.043 423.181 24.9384C425.05 25.8339 426.694 27.1369 427.992 28.7514L433.961 36.1489Z" fill="white" stroke="black" stroke-width="1.04514" stroke-linecap="round" stroke-linejoin="round"/>
<path d="M263.242 89.1326H243.859C223.97 89.1326 207.847 105.244 207.847 125.119V144.488C207.847 164.362 223.97 180.474 243.859 180.474H263.242C283.131 180.474 299.254 164.362 299.254 144.488V125.119C299.254 105.244 283.131 89.1326 263.242 89.1326Z" fill="#757575" stroke="black" stroke-width="1.04514" stroke-linecap="round" stroke-linejoin="round"/>
<path d="M224.455 142.528V155.51C224.455 157.466 225.233 159.343 226.617 160.726C228.001 162.109 229.879 162.887 231.837 162.887H276.412C278.361 162.887 280.231 162.117 281.613 160.745C282.996 159.373 283.78 157.51 283.794 155.563C283.847 149.714 284.163 142.528 284.163 142.528H224.455Z" fill="#999999" stroke="black" stroke-width="1.04514" stroke-linecap="round" stroke-linejoin="round"/>
<path d="M387.604 146.859H126.911C125.57 146.862 124.26 146.461 123.15 145.709C122.04 144.957 121.183 143.889 120.689 142.643L80.4796 39.4892C80.2363 38.8672 80.1483 38.1954 80.2232 37.5318C80.2982 36.8682 80.5338 36.2329 80.9098 35.6808C81.2857 35.1287 81.7907 34.6764 82.3808 34.3632C82.971 34.05 83.6287 33.8852 84.297 33.8831H430.186C430.856 33.8817 431.516 34.044 432.109 34.3558C432.702 34.6676 433.21 35.1195 433.589 35.6721C433.967 36.2247 434.204 36.8613 434.28 37.5266C434.356 38.1918 434.269 38.8655 434.025 39.4892L393.815 142.612C393.327 143.862 392.473 144.936 391.365 145.693C390.257 146.451 388.946 146.857 387.604 146.859Z" fill="#BFBFBF" stroke="black" stroke-width="1.04514" stroke-linecap="round" stroke-linejoin="round"/>
<path d="M389.534 137.88H124.348L87.8613 40.4166H425.852L389.534 137.88Z" fill="black"/>
<path d="M283.858 146.722H224.74V150.768H283.858V146.722Z" fill="black"/>
<path d="M350.8 133.739H163.535C162.481 133.739 161.531 133.275 161.342 132.685L134.704 48.0775C134.409 47.1291 135.242 46.3599 136.571 46.3599H377.765C379.094 46.3599 379.874 47.1291 379.621 48.0775L352.994 132.685C352.804 133.223 351.823 133.739 350.8 133.739Z" fill="#878787"/>
<path d="M350.104 131.769H164.231L141.59 57.4668H372.745L350.104 131.769Z" fill="black"/>
<path d="M190.911 75.9183H155.721C154.845 75.9183 154.276 76.382 154.445 76.9721C154.614 77.3126 154.881 77.5947 155.211 77.7825C155.542 77.9703 155.921 78.055 156.301 78.0259H191.29C192.155 78.0259 192.767 77.5622 192.672 76.9721C192.577 76.382 191.775 75.9183 190.911 75.9183Z" fill="white"/>
<path d="M192.081 82.3358H162.153C161.299 82.3358 160.73 82.7889 160.888 83.3896C161.057 83.7151 161.318 83.9836 161.638 84.1617C161.959 84.3397 162.325 84.4194 162.691 84.3907H192.45C193.304 84.3907 193.905 83.9376 193.81 83.3896C193.716 82.8416 192.914 82.3358 192.081 82.3358Z" fill="white"/>
<path opacity="0.5" d="M193.22 88.5322H159.263C158.42 88.5322 157.871 88.9748 158.019 89.5017C158.191 89.8205 158.452 90.0821 158.77 90.2544C159.089 90.4266 159.451 90.502 159.812 90.4712H193.557C194.39 90.4712 194.991 90.0391 194.896 89.5017C194.801 88.9643 194.063 88.5322 193.22 88.5322Z" fill="white"/>
<path d="M194.316 94.5176H174.375C173.552 94.5176 172.983 94.9391 173.109 95.4555C173.236 95.9719 174.006 96.3934 174.828 96.3934H194.664C195.487 96.3934 196.077 95.9719 195.982 95.4555C195.887 94.9391 195.139 94.5176 194.316 94.5176Z" fill="white"/>
<path d="M195.382 100.292H162.565C161.764 100.292 161.215 100.703 161.363 101.209C161.511 101.715 162.27 102.105 163.082 102.105H195.709C196.521 102.105 197.101 101.704 197.017 101.209C196.933 100.714 196.194 100.292 195.382 100.292Z" fill="white"/>
<path d="M196.405 105.888H169.915C169.113 105.888 168.575 106.278 168.702 106.762C168.829 107.247 169.577 107.637 170.368 107.637H196.732C197.523 107.637 198.092 107.247 198.008 106.762C197.923 106.278 197.206 105.888 196.405 105.888Z" fill="white"/>
<path d="M197.396 111.294H171.338C170.547 111.294 170.02 111.673 170.147 112.137C170.273 112.6 171.001 112.99 171.781 112.99H197.712C198.493 112.99 199.052 112.611 198.967 112.137C198.883 111.662 198.187 111.294 197.396 111.294Z" fill="white"/>
<path d="M198.355 116.521H169.883C169.113 116.521 168.586 116.889 168.712 117.342C168.839 117.796 169.556 118.164 170.326 118.164H198.619C199.389 118.164 199.948 117.796 199.863 117.342C199.779 116.889 199.136 116.521 198.355 116.521Z" fill="white"/>
<path opacity="0.5" d="M199.294 121.589H180.924C180.165 121.589 179.637 121.947 179.743 122.39C179.848 122.833 180.555 123.18 181.304 123.18H199.579C200.338 123.18 200.886 122.822 200.813 122.39C200.739 121.958 200.053 121.589 199.294 121.589Z" fill="white"/>
<path opacity="0.5" d="M189.687 69.2584H163.461C162.575 69.2584 161.985 69.7431 162.143 70.3121C162.311 70.6553 162.58 70.9395 162.913 71.1276C163.246 71.3156 163.628 71.3987 164.009 71.3659H190.078C190.963 71.3659 191.586 70.8917 191.48 70.3121C191.333 69.968 191.08 69.68 190.757 69.4904C190.435 69.3007 190.06 69.2194 189.687 69.2584Z" fill="white"/>
<path d="M188.411 62.3563H151.903C151.007 62.3563 150.416 62.8621 150.596 63.4838C150.773 63.8401 151.052 64.1361 151.397 64.3348C151.742 64.5334 152.138 64.626 152.536 64.6008H188.823C189.719 64.6008 190.362 64.095 190.246 63.4838C190.105 63.1215 189.85 62.8152 189.519 62.6117C189.187 62.4081 188.798 62.3184 188.411 62.3563Z" fill="white"/>
<path d="M200.19 126.5H169.936C169.187 126.5 168.681 126.847 168.797 127.269C168.913 127.69 169.619 128.038 170.368 128.038H200.475C201.213 128.038 201.762 127.701 201.688 127.269C201.614 126.837 200.939 126.5 200.19 126.5Z" fill="white"/>
<path opacity="0.5" d="M203.27 78.2577H210.093L209.755 75.6548H202.88L203.27 78.2577Z" fill="white"/>
<path opacity="0.5" d="M204.219 84.6015H210.925L210.598 82.083H203.839L204.219 84.6015Z" fill="white"/>
<path opacity="0.5" d="M205.136 90.7134H211.727L211.41 88.2897H204.777L205.136 90.7134Z" fill="white"/>
<path opacity="0.5" d="M206.022 96.625H212.507L212.191 94.2856H205.674L206.022 96.625Z" fill="white"/>
<path opacity="0.5" d="M206.887 102.337H213.257L212.951 100.071H206.55L206.887 102.337Z" fill="white"/>
<path opacity="0.5" d="M207.71 107.858H213.974L213.689 105.667H207.383L207.71 107.858Z" fill="white"/>
<path opacity="0.5" d="M208.521 113.201H214.68L214.406 111.083H208.205L208.521 113.201Z" fill="white"/>
<path opacity="0.5" d="M209.291 118.365H215.355L215.091 116.32H208.985L209.291 118.365Z" fill="white"/>
<path opacity="0.5" d="M210.05 123.38H216.019L215.755 121.389H209.744L210.05 123.38Z" fill="white"/>
<path opacity="0.5" d="M202.279 71.6928H209.228L208.88 68.9951H201.878L202.279 71.6928Z" fill="white"/>
<path opacity="0.5" d="M201.256 64.8747H208.332L207.973 62.0717H200.834L201.256 64.8747Z" fill="white"/>
<path opacity="0.5" d="M210.779 128.238H216.652L216.399 126.31H210.483L210.779 128.238Z" fill="white"/>
<path d="M246.748 117.342C246.748 116.889 247.339 116.521 248.108 116.521H349.154C349.924 116.521 350.441 116.889 350.314 117.342C350.149 117.619 349.908 117.842 349.621 117.988C349.334 118.133 349.011 118.194 348.69 118.164H248.161C247.391 118.164 246.759 117.796 246.748 117.342Z" fill="white"/>
<path d="M350.178 112.99H294.224C293.443 112.99 292.853 112.611 292.906 112.137C292.958 111.662 293.633 111.294 294.424 111.294H350.663C351.443 111.294 351.97 111.673 351.833 112.137C351.669 112.423 351.425 112.656 351.131 112.807C350.838 112.958 350.507 113.022 350.178 112.99Z" fill="white"/>
<path opacity="0.5" d="M280.948 112.99H263.569C262.788 112.99 262.156 112.611 262.166 112.137C262.177 111.662 262.809 111.294 263.6 111.294H281.074C281.854 111.294 282.466 111.673 282.424 112.137C282.382 112.6 281.728 112.99 280.948 112.99Z" fill="white"/>
<path d="M317.265 107.637H238.344C237.553 107.637 236.888 107.247 236.857 106.762C236.825 106.278 237.447 105.888 238.249 105.888H317.592C318.383 105.888 318.963 106.278 318.868 106.762C318.773 107.247 318.067 107.637 317.265 107.637Z" fill="white"/>
<path opacity="0.5" d="M221.841 105.888H227.472C228.263 105.888 228.948 106.278 228.99 106.762C229.032 107.247 228.421 107.637 227.63 107.637H222.03C221.239 107.637 220.554 107.247 220.501 106.762C220.449 106.278 221.05 105.888 221.841 105.888Z" fill="white"/>
<path d="M328.687 101.209C328.581 101.704 327.843 102.105 327.031 102.105H252.665C251.853 102.105 251.199 101.704 251.189 101.209C251.178 100.714 251.832 100.292 252.633 100.292H327.411C328.223 100.292 328.792 100.703 328.687 101.209Z" fill="white"/>
<path d="M221.249 100.292H242.34C243.152 100.292 243.827 100.703 243.848 101.209C243.869 101.715 243.226 102.105 242.425 102.105H221.439C220.638 102.105 219.942 101.704 219.878 101.209C219.815 100.714 220.437 100.292 221.249 100.292Z" fill="white"/>
<path d="M220.628 94.5176H301.764C302.587 94.5176 303.198 94.9391 303.124 95.4555C303.051 95.9719 302.334 96.3934 301.511 96.3934H220.828C220.016 96.3934 219.299 95.9719 219.246 95.4555C219.194 94.9391 219.805 94.5176 220.628 94.5176Z" fill="white"/>
<path d="M273.301 90.4712C272.468 90.4712 271.814 90.0391 271.835 89.5017C271.857 88.9643 272.553 88.5322 273.396 88.5322H316.2C317.044 88.5322 317.645 88.9748 317.55 89.5017C317.455 90.0286 316.706 90.4712 315.873 90.4712H273.301Z" fill="white"/>
<path d="M219.995 88.5322H257.041C257.884 88.5322 258.559 88.9748 258.559 89.5017C258.559 90.0286 257.874 90.4712 257.041 90.4712H220.206C219.362 90.4712 218.645 90.0391 218.582 89.5017C218.518 88.9643 219.151 88.5322 219.995 88.5322Z" fill="white"/>
<path d="M358.403 84.3487H256.419C255.575 84.3487 254.879 83.8956 254.879 83.3476C254.879 82.7996 255.564 82.2938 256.419 82.2938H358.973C359.827 82.2938 360.386 82.7469 360.227 83.3476C360.053 83.673 359.788 83.9408 359.464 84.1185C359.14 84.2962 358.772 84.3762 358.403 84.3487Z" fill="white"/>
<path d="M360.216 78.0049H270.486C269.621 78.0049 268.935 77.5412 268.957 76.9511C268.978 76.361 269.695 75.8973 270.559 75.8973H360.818C361.682 75.8973 362.252 76.361 362.083 76.9511C361.911 77.2915 361.642 77.5733 361.31 77.7608C360.977 77.9484 360.597 78.0333 360.216 78.0049Z" fill="white"/>
<path opacity="0.5" d="M362.115 71.4187H343.323C342.438 71.4187 341.836 70.9445 341.974 70.3649C342.138 70.0207 342.404 69.7351 342.736 69.5467C343.068 69.3583 343.449 69.2761 343.83 69.3111H362.695C363.581 69.3111 364.161 69.7959 363.982 70.3649C363.807 70.7026 363.537 70.982 363.205 71.1692C362.874 71.3563 362.495 71.443 362.115 71.4187Z" fill="white"/>
<path d="M330.173 71.4186H261.175C260.299 71.4186 259.582 70.9444 259.593 70.3648C259.603 69.7852 260.31 69.311 261.196 69.311H330.606C331.491 69.311 332.103 69.7958 331.987 70.3648C331.833 70.7076 331.575 70.9935 331.249 71.1824C330.924 71.3714 330.548 71.454 330.173 71.4186Z" fill="white"/>
<path d="M223.495 121.589H287.221C287.98 121.589 288.56 121.947 288.508 122.39C288.455 122.833 287.822 123.18 287.063 123.18H223.696C222.936 123.18 222.283 122.822 222.23 122.39C222.177 121.958 222.757 121.589 223.495 121.589Z" fill="white"/>
<path d="M224.044 126.5H321.948C322.686 126.5 323.224 126.847 323.129 127.269C323.034 127.69 322.369 128.038 321.621 128.038H224.213C223.464 128.038 222.821 127.701 222.779 127.269C222.736 126.837 223.295 126.5 224.044 126.5Z" fill="white"/>
<path d="M326.746 64.6009H276.908C276.012 64.6009 275.316 64.0951 275.348 63.4839C275.379 62.8727 276.128 62.3563 277.035 62.3563H327.168C328.075 62.3563 328.707 62.8621 328.591 63.4839C328.441 63.841 328.182 64.1414 327.85 64.3421C327.519 64.5427 327.132 64.6333 326.746 64.6009Z" fill="white"/>
<path opacity="0.5" d="M262.778 64.6009H217.432C216.536 64.6009 215.745 64.0951 215.682 63.4839C215.619 62.8727 216.283 62.3563 217.19 62.3563H262.799C263.695 62.3563 264.423 62.8621 264.412 63.4839C264.402 64.1056 263.674 64.6009 262.778 64.6009Z" fill="white"/>
<path opacity="0.5" d="M301.374 121.589C302.133 121.589 302.702 121.947 302.639 122.39C302.576 122.833 301.911 123.18 301.152 123.18H296.259C295.51 123.18 294.941 122.822 294.994 122.39C295.046 121.958 295.7 121.589 296.459 121.589H301.374Z" fill="white"/>
<path opacity="0.5" d="M240.938 117.342C240.938 117.796 240.358 118.164 239.588 118.164H232.881C232.111 118.164 231.458 117.796 231.426 117.342C231.394 116.889 231.985 116.521 232.755 116.521H239.493C240.263 116.521 240.917 116.879 240.938 117.342Z" fill="white"/>
<path opacity="0.5" d="M321.874 95.4555C321.779 95.9719 321.031 96.3934 320.219 96.3934H312.373C311.55 96.3934 310.96 95.9719 311.034 95.4555C311.107 94.9391 311.856 94.5176 312.679 94.5176H320.567C321.389 94.5176 321.98 94.9391 321.874 95.4555Z" fill="white"/>
<path opacity="0.5" d="M346.35 100.292C347.162 100.292 347.71 100.703 347.573 101.209C347.408 101.507 347.16 101.751 346.858 101.91C346.557 102.069 346.215 102.137 345.876 102.105H339.622C338.81 102.105 338.262 101.704 338.378 101.209C338.535 100.905 338.779 100.655 339.08 100.491C339.381 100.328 339.724 100.258 340.065 100.292H346.35Z" fill="white"/>
<path opacity="0.5" d="M244.07 84.3487C243.227 84.3487 242.52 83.8956 242.488 83.3476C242.457 82.7996 243.142 82.2938 243.996 82.2938H250.651C251.505 82.2938 252.201 82.7469 252.211 83.3476C252.222 83.9483 251.536 84.3487 250.693 84.3487H244.07Z" fill="white"/>
<path d="M153.443 51.9028C153.604 52.2576 153.669 52.6479 153.632 53.0353C153.596 53.4228 153.459 53.7942 153.236 54.113C153.013 54.4318 152.71 54.6872 152.358 54.8539C152.006 55.0207 151.617 55.0931 151.229 55.0642C150.3 55.0092 149.409 54.6792 148.669 54.1161C147.929 53.5531 147.374 52.7826 147.074 51.9028C146.915 51.5498 146.85 51.1616 146.885 50.7761C146.921 50.3905 147.055 50.0207 147.276 49.7025C147.497 49.3843 147.796 49.1286 148.145 48.9602C148.494 48.7918 148.881 48.7165 149.267 48.7415C150.2 48.7896 151.097 49.1167 151.842 49.6804C152.587 50.2441 153.145 51.0184 153.443 51.9028Z" fill="white"/>
<path d="M162.027 51.9553C162.17 52.3195 162.219 52.7141 162.168 53.1022C162.118 53.4903 161.97 53.8593 161.739 54.1749C161.507 54.4905 161.199 54.7424 160.844 54.907C160.489 55.0717 160.097 55.1438 159.707 55.1167C158.79 55.0653 157.91 54.735 157.186 54.1699C156.463 53.6048 155.929 52.8321 155.657 51.9553C155.518 51.5928 155.471 51.2012 155.522 50.8161C155.572 50.431 155.719 50.0647 155.947 49.7505C156.176 49.4364 156.479 49.1842 156.83 49.0172C157.181 48.8501 157.568 48.7734 157.956 48.794C158.878 48.8366 159.764 49.1634 160.493 49.7294C161.222 50.2954 161.758 51.073 162.027 51.9553Z" fill="white"/>
<path d="M170.705 51.9028C170.833 52.2749 170.866 52.6727 170.803 53.0608C170.74 53.449 170.582 53.8156 170.343 54.1282C170.104 54.4408 169.792 54.6897 169.434 54.853C169.076 55.0162 168.683 55.0888 168.291 55.0641C167.382 55.0212 166.51 54.6923 165.8 54.1245C165.09 53.5567 164.577 52.7791 164.336 51.9028C164.212 51.5316 164.18 51.1358 164.244 50.7496C164.308 50.3635 164.465 49.9987 164.702 49.6871C164.939 49.3755 165.249 49.1265 165.604 48.9617C165.959 48.7969 166.349 48.7213 166.74 48.7415C167.652 48.7774 168.529 49.1035 169.242 49.6722C169.955 50.2409 170.468 51.0224 170.705 51.9028Z" fill="white"/>
<path opacity="0.1" d="M87.8613 40.4166L116.281 116.32L150.564 40.4166H87.8613Z" fill="white"/>
<path opacity="0.1" d="M135.811 137.88L192.682 40.4166H252.211L168.512 137.88H135.811Z" fill="white"/>
<path opacity="0.1" d="M277.868 39.9319L189.224 137.88H202.88L294.699 40.4166L277.868 39.9319Z" fill="white"/>
<path opacity="0.1" d="M295.373 137.88L392.791 40.4166H406.543L306.098 137.88H295.373Z" fill="white"/>
<path d="M163.281 173H141.041C139.643 173 138.302 173.555 137.313 174.543C136.324 175.531 135.769 176.871 135.769 178.269V189.081C135.769 190.478 136.324 191.818 137.313 192.806C138.302 193.794 139.643 194.35 141.041 194.35H146.852L151.26 204.329L157.471 194.35H163.281C164.68 194.35 166.021 193.794 167.01 192.806C167.999 191.818 168.554 190.478 168.554 189.081V178.195C168.535 176.811 167.971 175.489 166.984 174.517C165.997 173.545 164.667 173 163.281 173Z" fill="white" stroke="black" stroke-width="1.04514" stroke-linecap="round" stroke-linejoin="round"/>
<path d="M149.066 179.186C149.066 178.906 149.178 178.638 149.375 178.44C149.573 178.243 149.841 178.132 150.121 178.132C150.388 178.131 150.646 178.232 150.842 178.414C151.037 178.596 151.157 178.845 151.175 179.112C151.175 179.391 151.064 179.659 150.867 179.857C150.669 180.055 150.401 180.166 150.121 180.166C149.854 180.166 149.596 180.065 149.4 179.884C149.204 179.702 149.085 179.452 149.066 179.186ZM149.298 181.388H150.996V188.617H149.298V181.388Z" fill="black"/>
<path d="M155.077 181.009V181.441H157.059V182.8H155.13V188.617H153.432V182.8H152.24V181.441H153.432V180.988C153.405 180.645 153.454 180.301 153.576 179.979C153.697 179.658 153.888 179.367 154.135 179.128C154.381 178.888 154.678 178.706 155.003 178.594C155.328 178.482 155.674 178.443 156.015 178.48C156.556 178.457 157.091 178.593 157.555 178.87L157.081 180.145C156.804 179.955 156.477 179.852 156.142 179.85C155.446 179.85 155.077 180.239 155.077 181.009Z" fill="black"/>
<path d="M220.545 181.686H198.273C196.874 181.686 195.533 182.241 194.544 183.229C193.556 184.218 193 185.558 193 186.955V197.777C193 199.175 193.556 200.515 194.544 201.503C195.533 202.491 196.874 203.046 198.273 203.046H204.094L208.491 213.026L214.702 203.046H220.524C221.922 203.046 223.263 202.491 224.252 201.503C225.241 200.515 225.796 199.175 225.796 197.777V186.913C225.785 185.527 225.228 184.2 224.245 183.222C223.261 182.243 221.932 181.692 220.545 181.686Z" fill="white" stroke="black" stroke-width="1.04514" stroke-linecap="round" stroke-linejoin="round"/>
<path d="M202.976 194.237H197.292C197.402 194.765 197.702 195.234 198.136 195.555C198.57 195.876 199.107 196.025 199.644 195.975C200.008 195.989 200.371 195.925 200.709 195.789C201.047 195.653 201.352 195.447 201.605 195.185L202.512 196.239C201.965 196.783 201.273 197.16 200.519 197.325C199.764 197.49 198.978 197.436 198.253 197.171C197.528 196.905 196.894 196.439 196.425 195.826C195.956 195.213 195.671 194.479 195.605 193.71C195.59 193.217 195.677 192.727 195.86 192.27C196.043 191.812 196.318 191.397 196.668 191.05C197.018 190.703 197.435 190.432 197.895 190.253C198.354 190.074 198.846 189.992 199.338 190.011C199.831 189.991 200.323 190.074 200.782 190.256C201.241 190.438 201.656 190.715 202.001 191.067C202.346 191.42 202.613 191.841 202.785 192.304C202.956 192.766 203.029 193.26 202.997 193.752C202.997 193.878 202.987 194.079 202.976 194.237ZM197.282 193.12H201.437C201.386 192.62 201.146 192.16 200.765 191.832C200.384 191.505 199.893 191.336 199.391 191.36C198.881 191.327 198.377 191.491 197.984 191.819C197.592 192.146 197.34 192.612 197.282 193.12Z" fill="black"/>
<path d="M204.601 187.271H206.288V197.313H204.601V187.271Z" fill="black"/>
<path d="M207.764 196.597L208.407 195.312C209.166 195.776 210.037 196.024 210.927 196.028C211.982 196.028 212.446 195.733 212.446 195.227C212.446 193.847 207.975 195.143 207.975 192.266C207.975 190.896 209.208 190 211.138 190C212.079 189.985 213.009 190.199 213.848 190.622L213.195 191.908C212.555 191.537 211.825 191.351 211.085 191.37C210.031 191.37 209.567 191.708 209.567 192.182C209.567 193.647 214.038 192.34 214.038 195.175C214.038 196.523 212.794 197.409 210.759 197.409C209.704 197.42 208.668 197.139 207.764 196.597Z" fill="black"/>
<path d="M222.285 194.237H216.601C216.71 194.765 217.011 195.234 217.444 195.555C217.878 195.876 218.415 196.025 218.953 195.975C219.317 195.989 219.68 195.925 220.018 195.789C220.356 195.653 220.661 195.447 220.914 195.185L221.821 196.239C221.273 196.783 220.582 197.16 219.827 197.325C219.073 197.49 218.287 197.436 217.562 197.171C216.837 196.905 216.203 196.439 215.733 195.826C215.264 195.213 214.98 194.479 214.914 193.71C214.899 193.217 214.986 192.727 215.168 192.27C215.351 191.812 215.626 191.397 215.976 191.05C216.326 190.703 216.744 190.432 217.203 190.253C217.663 190.074 218.154 189.992 218.647 190.011C219.14 189.991 219.632 190.074 220.091 190.256C220.549 190.438 220.965 190.715 221.31 191.067C221.655 191.42 221.922 191.841 222.093 192.304C222.265 192.766 222.338 193.26 222.306 193.752C222.306 193.878 222.296 194.079 222.285 194.237ZM216.59 193.12H220.693C220.642 192.62 220.401 192.16 220.021 191.832C219.64 191.505 219.148 191.336 218.647 191.36C218.145 191.341 217.655 191.511 217.274 191.837C216.893 192.164 216.649 192.621 216.59 193.12Z" fill="black"/>
<path d="M310.524 181.054H288.273C286.883 181.054 285.55 181.602 284.563 182.578C283.576 183.555 283.014 184.882 283 186.27V197.092C283 198.49 283.556 199.83 284.544 200.818C285.533 201.806 286.874 202.361 288.273 202.361H294.094L298.491 212.34L304.702 202.361H310.524C311.922 202.361 313.263 201.806 314.252 200.818C315.241 199.83 315.796 198.49 315.796 197.092V186.27C315.782 184.882 315.221 183.555 314.233 182.578C313.246 181.602 311.913 181.054 310.524 181.054Z" fill="white" stroke="black" stroke-width="1.04514" stroke-linecap="round" stroke-linejoin="round"/>
<path d="M293.377 189.063V189.495H295.359V190.854H293.419V196.671H291.732V190.854H290.54V189.495H291.732V189.042C291.705 188.7 291.754 188.357 291.875 188.036C291.996 187.715 292.186 187.425 292.431 187.186C292.677 186.947 292.972 186.764 293.295 186.652C293.619 186.539 293.964 186.499 294.305 186.534C294.842 186.507 295.375 186.643 295.834 186.923L295.359 188.198C295.087 188.008 294.764 187.905 294.431 187.903C293.746 187.903 293.377 188.293 293.377 189.063Z" fill="black"/>
<path d="M295.803 193.056C295.773 192.287 295.975 191.527 296.381 190.874C296.787 190.22 297.38 189.703 298.082 189.389C298.785 189.074 299.566 188.977 300.325 189.11C301.083 189.242 301.784 189.598 302.339 190.133C302.893 190.667 303.275 191.354 303.435 192.107C303.595 192.859 303.526 193.643 303.237 194.356C302.948 195.069 302.452 195.68 301.813 196.109C301.175 196.539 300.422 196.767 299.652 196.766C299.151 196.793 298.649 196.717 298.179 196.542C297.708 196.368 297.279 196.098 296.918 195.75C296.557 195.401 296.271 194.983 296.079 194.519C295.887 194.056 295.793 193.558 295.803 193.056ZM301.803 193.056C301.772 192.648 301.623 192.257 301.373 191.932C301.124 191.606 300.784 191.361 300.397 191.225C300.01 191.09 299.592 191.07 299.194 191.168C298.796 191.267 298.435 191.479 298.156 191.779C297.876 192.079 297.69 192.454 297.621 192.858C297.552 193.262 297.602 193.677 297.765 194.053C297.928 194.429 298.198 194.749 298.54 194.975C298.883 195.2 299.284 195.321 299.694 195.322C299.985 195.323 300.273 195.263 300.539 195.148C300.806 195.032 301.046 194.863 301.244 194.65C301.442 194.437 301.594 194.186 301.69 193.911C301.786 193.637 301.825 193.346 301.803 193.056Z" fill="black"/>
<path d="M309.311 189.358V190.97C309.181 190.961 309.051 190.961 308.921 190.97C308.627 190.947 308.332 190.99 308.057 191.096C307.781 191.201 307.533 191.368 307.331 191.582C307.129 191.796 306.977 192.053 306.887 192.334C306.797 192.615 306.772 192.912 306.812 193.204V196.713H305.114V189.484H306.728V190.538C307.018 190.133 307.409 189.811 307.862 189.604C308.316 189.397 308.815 189.312 309.311 189.358Z" fill="black"/>
<path d="M361.366 173H339.115C337.717 173 336.376 173.555 335.387 174.543C334.398 175.531 333.843 176.871 333.843 178.269V189.081C333.843 190.478 334.398 191.818 335.387 192.806C336.376 193.794 337.717 194.35 339.115 194.35H344.937L349.334 204.329L355.545 194.35H361.366C362.765 194.35 364.106 193.794 365.095 192.806C366.083 191.818 366.639 190.478 366.639 189.081V178.195C366.62 176.811 366.055 175.489 365.069 174.517C364.082 173.545 362.752 173 361.366 173Z" fill="white" stroke="black" stroke-width="1.04514" stroke-linecap="round" stroke-linejoin="round"/>
<path d="M347.352 181.03H353.594V182.41H347.352V181.03ZM347.352 184.307H353.594V185.666H347.352V184.307Z" fill="black"/>
<path d="M169.315 357.329L191.524 357.329C192.922 357.329 194.263 356.774 195.252 355.786C196.241 354.797 196.796 353.457 196.796 352.06L196.796 341.248C196.796 339.851 196.241 338.511 195.252 337.523C194.263 336.534 192.922 335.979 191.524 335.979L185.703 335.979L181.305 326L175.094 335.979L169.273 335.979C167.874 335.979 166.533 336.534 165.545 337.523C164.556 338.511 164 339.851 164 341.248L164 352.102C164.006 352.794 164.148 353.478 164.418 354.115C164.688 354.752 165.081 355.33 165.574 355.815C166.068 356.301 166.652 356.684 167.294 356.944C167.936 357.204 168.623 357.334 169.315 357.329Z" fill="white" stroke="black" stroke-width="1.04514" stroke-linecap="round" stroke-linejoin="round"/>
<path d="M175.126 340H178.363V341.359H176.813V351.318H178.363V352.677H175.126V340Z" fill="black"/>
<path d="M182.56 352.677V351.318H184.089V341.359H182.56V340H185.776V352.645L182.56 352.677Z" fill="black"/>
<path d="M263.336 166.554H241.085C239.687 166.554 238.346 167.109 237.357 168.097C236.368 169.085 235.812 170.425 235.812 171.823V182.634C235.812 184.032 236.368 185.372 237.357 186.36C238.346 187.348 239.687 187.903 241.085 187.903H246.906L251.314 197.883L257.525 187.903H263.336C264.734 187.903 266.076 187.348 267.064 186.36C268.053 185.372 268.609 184.032 268.609 182.634V171.781C268.598 170.39 268.037 169.061 267.05 168.082C266.062 167.103 264.727 166.554 263.336 166.554Z" fill="white" stroke="black" stroke-width="1.04514" stroke-linecap="round" stroke-linejoin="round"/>
<path d="M247.686 177.344C248.224 177.513 248.488 177.882 248.488 178.725V181.296C248.461 181.44 248.471 181.589 248.514 181.728C248.558 181.868 248.635 181.995 248.739 182.099C248.842 182.203 248.97 182.28 249.11 182.323C249.25 182.367 249.398 182.376 249.542 182.35H249.827V183.709H249.142C248.836 183.755 248.525 183.73 248.231 183.636C247.938 183.542 247.669 183.382 247.447 183.168C247.225 182.954 247.055 182.692 246.95 182.403C246.845 182.113 246.809 181.803 246.843 181.496V178.714C246.843 178.261 246.611 178.061 246.231 178.061H245.788V176.681H246.231C246.611 176.681 246.843 176.48 246.843 176.027V173.245C246.809 172.939 246.845 172.629 246.95 172.339C247.055 172.049 247.225 171.787 247.447 171.573C247.669 171.36 247.938 171.2 248.231 171.106C248.525 171.012 248.836 170.987 249.142 171.032H249.827V172.392H249.542C249.398 172.365 249.25 172.375 249.11 172.418C248.97 172.462 248.842 172.539 248.739 172.643C248.635 172.746 248.558 172.873 248.514 173.013C248.471 173.153 248.461 173.301 248.488 173.445V176.017C248.488 176.796 248.224 177.165 247.686 177.344Z" fill="black"/>
<path d="M258.021 176.649V177.998H257.557C257.188 177.998 256.956 178.198 256.956 178.651V181.433C256.99 181.741 256.953 182.052 256.848 182.342C256.743 182.633 256.572 182.896 256.348 183.11C256.125 183.324 255.855 183.484 255.56 183.577C255.265 183.67 254.952 183.693 254.646 183.646H253.961V182.318H254.246C254.389 182.342 254.537 182.331 254.676 182.287C254.814 182.242 254.941 182.165 255.044 182.062C255.147 181.959 255.224 181.833 255.268 181.694C255.313 181.556 255.324 181.408 255.3 181.265V178.693C255.3 177.85 255.543 177.482 256.081 177.313C255.543 177.134 255.3 176.765 255.3 175.922V173.351C255.324 173.207 255.313 173.06 255.268 172.921C255.224 172.782 255.147 172.656 255.044 172.553C254.941 172.45 254.814 172.373 254.676 172.329C254.537 172.284 254.389 172.273 254.246 172.297H253.961V170.938H254.646C254.952 170.89 255.265 170.914 255.56 171.007C255.855 171.1 256.125 171.26 256.348 171.474C256.572 171.688 256.743 171.951 256.848 172.241C256.953 172.532 256.99 172.843 256.956 173.151V175.932C256.956 176.386 257.188 176.586 257.557 176.586L258.021 176.649Z" fill="black"/>
<path d="M316.273 357.331L338.524 357.342C339.922 357.342 341.263 356.788 342.253 355.8C343.242 354.812 343.798 353.473 343.799 352.075L343.804 341.263C343.805 339.866 343.25 338.526 342.261 337.537C341.273 336.548 339.932 335.993 338.534 335.992L332.723 335.989L328.32 326.008L322.104 335.984L316.283 335.982C314.884 335.981 313.543 336.536 312.554 337.523C311.564 338.511 311.008 339.851 311.008 341.248L311.003 352.123C311.019 353.51 311.581 354.834 312.567 355.809C313.554 356.784 314.885 357.331 316.273 357.331Z" fill="white" stroke="black" stroke-width="1.04514" stroke-linecap="round" stroke-linejoin="round"/>
<path d="M328.287 349.328C328.302 349.483 328.285 349.64 328.236 349.788C328.187 349.936 328.107 350.072 328.002 350.187C327.897 350.302 327.77 350.394 327.627 350.457C327.484 350.52 327.33 350.553 327.174 350.553C327.018 350.553 326.864 350.52 326.721 350.457C326.579 350.394 326.451 350.302 326.347 350.186C326.242 350.071 326.162 349.935 326.113 349.787C326.064 349.639 326.047 349.482 326.062 349.327C326.047 349.172 326.065 349.015 326.114 348.868C326.163 348.72 326.242 348.584 326.347 348.468C326.452 348.353 326.58 348.261 326.723 348.198C326.865 348.135 327.019 348.102 327.175 348.102C327.331 348.102 327.485 348.135 327.628 348.198C327.771 348.261 327.898 348.354 328.003 348.469C328.108 348.584 328.187 348.721 328.236 348.869C328.285 349.016 328.302 349.173 328.287 349.328ZM326.065 344.174C326.094 343.767 326.201 343.37 326.382 343.005L327.078 341.098L328.133 341.098L327.584 343.205C327.779 343.288 327.945 343.428 328.06 343.607C328.175 343.785 328.233 343.995 328.226 344.207C328.226 344.499 328.11 344.779 327.903 344.985C327.697 345.192 327.416 345.308 327.124 345.307C326.832 345.307 326.551 345.191 326.345 344.984C326.138 344.778 326.022 344.498 326.022 344.206L326.065 344.174Z" fill="black"/>
<path d="M241.802 353.452H264.042C265.441 353.452 266.782 352.897 267.771 351.909C268.759 350.92 269.315 349.58 269.315 348.183V337.413C269.315 336.016 268.759 334.676 267.771 333.688C266.782 332.7 265.441 332.144 264.042 332.144H258.232L256.534 322.165L247.613 332.144H241.802C240.404 332.144 239.062 332.7 238.074 333.688C237.085 334.676 236.529 336.016 236.529 337.413V348.225C236.54 349.615 237.101 350.944 238.088 351.924C239.076 352.903 240.411 353.452 241.802 353.452Z" fill="white" stroke="black" stroke-width="1.04514" stroke-linecap="round" stroke-linejoin="round"/>
<path d="M249.617 340.596L244.945 342.387L249.617 344.126V345.549L243.374 343.125V341.66L249.617 339.237V340.596Z" fill="black"/>
<path d="M254.552 335.675H256.06L251.589 348.436H250.081L254.552 335.675Z" fill="black"/>
<path d="M262.63 341.607V343.072L256.387 345.496V344.084L261.058 342.345L256.387 340.596V339.226L262.63 341.607Z" fill="black"/>
<path d="M100.367 284.287H122.608C123.997 284.287 125.33 283.739 126.318 282.762C127.305 281.785 127.866 280.459 127.88 279.07V268.248C127.88 266.851 127.325 265.511 126.336 264.523C125.347 263.534 124.006 262.979 122.608 262.979H116.797L118.063 253L106.178 262.979H100.367C98.969 262.979 97.6279 263.534 96.6391 264.523C95.6502 265.511 95.0947 266.851 95.0947 268.248V279.07C95.1086 280.459 95.6703 281.785 96.6576 282.762C97.6449 283.739 98.9781 284.287 100.367 284.287Z" fill="white" stroke="black" stroke-width="1.04514" stroke-linecap="round" stroke-linejoin="round"/>
<path d="M106.958 277.437C106.958 277.158 107.069 276.89 107.267 276.692C107.465 276.494 107.733 276.383 108.013 276.383C108.292 276.383 108.56 276.494 108.758 276.692C108.956 276.89 109.067 277.158 109.067 277.437C109.067 277.717 108.956 277.985 108.758 278.182C108.56 278.38 108.292 278.491 108.013 278.491C107.733 278.491 107.465 278.38 107.267 278.182C107.069 277.985 106.958 277.717 106.958 277.437ZM107.053 268.912H109.057L108.719 275.235H107.38L107.053 268.912Z" fill="black"/>
<path d="M110.808 271.336H117.05V272.695H110.808V271.336ZM110.808 274.613H117.05V275.972H110.808V274.613Z" fill="black"/>
<path d="M456.549 262.427C456.544 266.615 456.191 270.795 455.495 274.925C452.436 293.165 442.84 306.464 431.493 306.464C430.48 306.465 429.469 306.359 428.477 306.148C416.086 303.524 406.479 284.957 406.479 262.427C406.479 238.106 417.679 229.496 431.493 229.496C445.308 229.496 456.549 238.063 456.549 262.427Z" fill="white"/>
<mask id="mask0_1189_881" style="mask-type:luminance" maskUnits="userSpaceOnUse" x="406" y="229" width="51" height="78">
<path d="M456.549 262.427C456.544 266.615 456.191 270.795 455.495 274.925C452.436 293.165 442.84 306.464 431.493 306.464C430.48 306.465 429.469 306.359 428.477 306.148C416.086 303.524 406.479 284.957 406.479 262.427C406.479 238.106 417.679 229.496 431.493 229.496C445.308 229.496 456.549 238.063 456.549 262.427Z" fill="white"/>
</mask>
<g mask="url(#mask0_1189_881)">
<path d="M447.512 262.701C448.44 275.746 446.204 288.855 442.439 301.385C451.867 293.65 456.201 281.49 460.124 269.951C462.971 261.573 465.85 252.932 465.333 244.102C464.817 235.271 460.061 226.071 451.793 223.026C447.648 221.531 443.098 221.602 439.001 223.226C432.052 226.019 435.838 228.274 438.78 233.269C443.895 242.287 446.882 252.354 447.512 262.701Z" fill="url(#paint2_linear_1189_881)"/>
<path opacity="0.5" d="M447.512 262.701C448.44 275.746 446.204 288.855 442.439 301.385C451.867 293.65 456.201 281.49 460.124 269.951C462.971 261.573 465.85 252.932 465.333 244.102C464.817 235.271 460.061 226.071 451.793 223.026C447.648 221.531 443.098 221.602 439.001 223.226C432.052 226.019 435.838 228.274 438.78 233.269C443.895 242.287 446.882 252.354 447.512 262.701Z" fill="white"/>
</g>
<path d="M456.549 262.427C456.544 266.615 456.191 270.795 455.495 274.925C452.436 293.165 442.84 306.464 431.493 306.464C430.48 306.465 429.469 306.359 428.477 306.148C416.086 303.524 406.479 284.957 406.479 262.427C406.479 238.106 417.679 229.496 431.493 229.496C445.308 229.496 456.549 238.063 456.549 262.427Z" stroke="black" stroke-width="1.04514" stroke-miterlimit="10"/>
<path d="M445.002 284.798C443.339 290.432 440.543 295.667 436.787 300.184L445.002 284.798Z" fill="white"/>
<path d="M445.002 284.798C443.339 290.432 440.543 295.667 436.787 300.184" stroke="black" stroke-width="1.04514" stroke-miterlimit="10"/>
<path d="M445.793 281.742C445.666 282.332 445.519 282.923 445.36 283.513" stroke="black" stroke-width="1.04514" stroke-miterlimit="10"/>
<path d="M445.729 262.364C447.048 267.991 447.216 273.825 446.225 279.519L445.729 262.364Z" fill="white"/>
<path d="M445.729 262.364C447.048 267.991 447.216 273.825 446.225 279.519" stroke="black" stroke-width="1.04514" stroke-miterlimit="10"/>
<path d="M406.532 262.427C406.532 262.427 435.005 251.194 456.581 262.427" stroke="black" stroke-width="1.04514" stroke-miterlimit="10"/>
<path d="M431.556 229.496C431.556 229.496 434.403 240.034 434.719 257.179L431.556 229.496Z" fill="white"/>
<path d="M431.556 229.496C431.556 229.496 434.403 240.034 434.719 257.179" stroke="black" stroke-width="1.04514" stroke-miterlimit="10"/>
<path d="M435.531 242.278C435.89 245.556 435.321 248.338 434.255 248.506C433.19 248.675 432.03 246.156 431.672 242.89C431.313 239.623 431.872 236.82 432.937 236.651C434.002 236.483 435.162 239.043 435.531 242.278Z" fill="#BFBFBF" stroke="black" stroke-width="1.04514" stroke-linecap="round" stroke-linejoin="round"/>
<path d="M420.336 314.894H386.949C384.97 314.897 383.057 314.181 381.565 312.881C380.074 311.581 379.105 309.784 378.84 307.823C378.77 307.452 378.739 307.074 378.745 306.696V228.095C378.74 227.713 378.772 227.332 378.84 226.957C379.106 224.997 380.075 223.202 381.566 221.903C383.058 220.604 384.971 219.891 386.949 219.896H481.563C482.942 219.906 484.296 220.269 485.496 220.95" stroke="black" stroke-width="1.04514" stroke-miterlimit="10"/>
<defs>
<linearGradient id="paint0_linear_1189_881" x1="257.256" y1="215.681" x2="257.256" y2="318.055" gradientUnits="userSpaceOnUse">
<stop stop-color="#18A0F5"/>
<stop offset="1" stop-color="#F59F27"/>
</linearGradient>
<linearGradient id="paint1_linear_1189_881" x1="446.991" y1="130.301" x2="446.991" y2="199.962" gradientUnits="userSpaceOnUse">
<stop stop-color="#7DFFAF"/>
<stop offset="1" stop-color="#9955E8"/>
</linearGradient>
<linearGradient id="paint2_linear_1189_881" x1="450.231" y1="221.954" x2="450.231" y2="301.385" gradientUnits="userSpaceOnUse">
<stop stop-color="#18A0F5"/>
<stop offset="1" stop-color="#F59F27"/>
</linearGradient>
</defs>
</svg>
