<svg width="25" height="24" viewBox="0 0 25 24" fill="none" xmlns="http://www.w3.org/2000/svg">
<g clip-path="url(#clip0_1338_804)">
<path d="M0.933594 20.9054C0.933594 22.6147 2.31908 24 4.02817 24H21.839C23.5483 24 24.9336 22.6145 24.9336 20.9054V3.09457C24.9336 1.3853 23.5481 0 21.839 0H4.02817C2.31889 0 0.933594 1.38549 0.933594 3.09457V20.9054Z" fill="#18A0F5"/>
<path d="M10.8857 10.6161V7.21731H13.8774C14.1623 7.21731 14.4371 7.24105 14.7017 7.28854C14.9662 7.33603 15.2003 7.42082 15.4038 7.54294C15.6073 7.66505 15.7701 7.83465 15.8922 8.05173C16.0144 8.26882 16.0754 8.54696 16.0754 8.88616C16.0754 9.49672 15.8922 9.93767 15.5259 10.209C15.1596 10.4804 14.6915 10.6161 14.1216 10.6161H10.8857ZM7.69043 4.73438V19.2656H14.7322C15.3834 19.2656 16.0177 19.1842 16.6351 19.0214C17.2524 18.8586 17.8019 18.6076 18.2836 18.2684C18.7653 17.9292 19.1485 17.4916 19.4335 16.9557C19.7184 16.4197 19.8609 15.7855 19.8609 15.0528C19.8609 14.1437 19.6404 13.367 19.1994 12.7225C18.7585 12.078 18.0903 11.6269 17.1948 11.3691C17.846 11.057 18.3379 10.6568 18.6703 10.1683C19.0027 9.67988 19.1689 9.06933 19.1689 8.33666C19.1689 7.65826 19.057 7.08841 18.8331 6.6271C18.6092 6.16579 18.2938 5.79607 17.8867 5.51792C17.4797 5.23978 16.9912 5.03965 16.4214 4.91754C15.8515 4.79543 15.2206 4.73438 14.5287 4.73438H7.69043ZM10.8857 16.7827V12.7937H14.3659C15.0578 12.7937 15.6141 12.9531 16.0347 13.272C16.4553 13.5908 16.6656 14.1234 16.6656 14.8696C16.6656 15.2495 16.6012 15.5616 16.4723 15.8058C16.3434 16.05 16.1704 16.2434 15.9533 16.3858C15.7362 16.5283 15.4852 16.6301 15.2003 16.6911C14.9154 16.7522 14.6169 16.7827 14.3048 16.7827H10.8857Z" fill="#1D1D1D"/>
</g>
<defs>
<clipPath id="clip0_1338_804">
<rect width="24" height="24" fill="white" transform="translate(0.933594)"/>
</clipPath>
</defs>
</svg>
