<svg width="24" height="24" viewBox="0 0 24 24" fill="none" xmlns="http://www.w3.org/2000/svg">
<path d="M5.04593 22.0724L3.49854 4.71657H20.5017L18.9527 22.0696L11.9897 24L5.04593 22.0724Z" fill="#18A0F5"/>
<path d="M12 22.5245L17.6264 20.9647L18.9502 6.13565H12V22.5245Z" fill="#18A0F5"/>
<path d="M12.0002 12.5727H9.18344L8.98891 10.3929H12.0002V8.2643H11.9928H6.6626L6.71355 8.83538L7.23672 14.7013H12.0002V12.5727Z" fill="#1D1D1D"/>
<path d="M12.0004 18.1009L11.991 18.1034L9.62038 17.4633L9.46883 15.7656H8.31688H7.33203L7.63025 19.1078L11.9906 20.3183L12.0004 20.3156V18.1009Z" fill="#1D1D1D"/>
<path d="M5.08057 0H6.1623V1.06875H7.15183V0H8.23361V3.23644H7.15188V2.15269H6.16235V3.23644H5.08061L5.08057 0Z" fill="#18A0F5"/>
<path d="M9.65593 1.07325H8.70361V0H11.6905V1.07325H10.7378V3.23644H9.65597L9.65593 1.07325Z" fill="#18A0F5"/>
<path d="M12.1646 0H13.2925L13.9863 1.13719L14.6795 0H15.8079V3.23644H14.7306V1.63228L13.9863 2.78302H13.9677L13.223 1.63228V3.23644H12.1646V0Z" fill="#18A0F5"/>
<path d="M16.3462 0H17.4283V2.16666H18.9495V3.23644H16.3462V0Z" fill="#18A0F5"/>
<path d="M11.9927 12.5727V14.7013H14.6138L14.3668 17.4619L11.9927 18.1027V20.3173L16.3565 19.1078L16.3885 18.7482L16.8887 13.1443L16.9406 12.5727H16.367H11.9927Z" fill="#1D1D1D"/>
<path d="M11.9927 8.2643V9.58636V10.3877V10.3929H17.1275H17.1343L17.177 9.91449L17.274 8.83538L17.3249 8.2643H11.9927Z" fill="#1D1D1D"/>
</svg>
