<svg width="25" height="24" viewBox="0 0 25 24" fill="none" xmlns="http://www.w3.org/2000/svg">
<path d="M22.0782 5.68763L13.81 0.88669C13.2885 0.58969 12.6096 0.58969 12.084 0.88669L3.72753 5.68763C3.18941 5.99719 2.80859 6.579 2.80859 7.20132V16.7904C2.80859 17.4128 3.19934 17.9948 3.73747 18.306L5.94528 19.56C7.00053 20.0798 7.37347 20.0798 7.85366 20.0798C9.41609 20.0798 10.3086 19.1349 10.3086 17.487V8.02013C10.3086 7.88644 10.239 7.6875 10.1078 7.6875H9.05347C8.91997 7.6875 8.62109 7.88644 8.62109 8.01994V17.4868C8.62109 18.2173 7.96034 18.9443 6.72547 18.3268L4.44416 17.0119C4.36466 16.9688 4.30859 16.8819 4.30859 16.7904V7.20132C4.30859 7.11094 4.41266 7.02019 4.49272 6.97388L12.8222 2.18119C12.9 2.13713 13.0144 2.13713 13.092 2.18119L21.3199 6.97275C21.3987 7.02019 21.3709 7.10813 21.3709 7.20132V16.7904C21.3709 16.8819 21.4052 16.971 21.3274 17.0151L13.0613 21.8106C12.9904 21.8531 12.9025 21.8531 12.8248 21.8106L10.7048 20.5451C10.6408 20.508 10.5649 20.4947 10.5036 20.529C9.91372 20.8633 9.80497 20.9078 9.25166 21.0996C9.11553 21.147 8.91472 21.2293 9.32853 21.4613L12.1032 23.1026C12.3681 23.2556 12.6686 23.3362 12.9745 23.3363C13.2823 23.3363 13.5838 23.2564 13.8495 23.1026L22.078 18.306C22.6161 17.9925 22.8711 17.4128 22.8711 16.7904V7.20132C22.8711 6.579 22.6161 5.99869 22.0782 5.68763ZM15.5417 15.2709C13.3431 15.2709 12.8588 14.6644 12.6973 13.5711C12.6786 13.4533 12.5787 13.3125 12.4588 13.3125H11.3843C11.2513 13.3125 11.1445 13.4738 11.1445 13.6061C11.1445 15.006 11.9055 16.7021 15.5419 16.7021C18.1742 16.7021 19.6834 15.6793 19.6834 13.8692C19.6834 12.0744 18.4708 11.6034 15.918 11.2656C13.3377 10.9245 13.0755 10.7522 13.0755 10.1477C13.0755 9.64931 13.2975 8.98463 15.2082 8.98463C16.9153 8.98463 17.5446 9.351 17.8035 10.5017C17.8257 10.6099 17.9245 10.6875 18.036 10.6875H19.1149C19.1813 10.6875 19.2447 10.6607 19.2912 10.6133C19.3362 10.5623 19.36 10.4983 19.354 10.4297C19.1869 8.44819 17.8705 7.52475 15.208 7.52475C12.8397 7.52475 11.4268 8.52488 11.4268 10.2013C11.4268 12.0197 12.8325 12.5222 15.106 12.747C17.8257 13.0136 18.0372 13.4111 18.0372 13.9461C18.0372 14.8751 17.2913 15.2709 15.5417 15.2709Z" fill="#18A0F5"/>
</svg>
