<svg width="24" height="24" viewBox="0 0 24 24" fill="none" xmlns="http://www.w3.org/2000/svg">
<g clip-path="url(#clip0_1288_4613)">
<path d="M12.0003 14.1375C13.1808 14.1375 14.1378 13.1805 14.1378 12C14.1378 10.8195 13.1808 9.8625 12.0003 9.8625C10.8198 9.8625 9.86279 10.8195 9.86279 12C9.86279 13.1805 10.8198 14.1375 12.0003 14.1375Z" fill="#18A0F5"/>
<path d="M20.1189 8.475C19.7064 8.325 19.2752 8.175 18.8252 8.04375C18.9377 7.59375 19.0314 7.14375 19.1064 6.7125C19.5002 4.2375 19.0689 2.49375 17.8689 1.81875C17.5127 1.6125 17.1189 1.51875 16.6689 1.51875C15.3564 1.51875 13.6877 2.49375 12.0002 4.125C10.3127 2.49375 8.64394 1.51875 7.33144 1.51875C6.88144 1.51875 6.4877 1.6125 6.13144 1.81875C4.93145 2.5125 4.5002 4.25625 4.89395 6.7125C4.96895 7.14375 5.0627 7.59375 5.1752 8.04375C4.72519 8.175 4.29395 8.30625 3.88145 8.475C1.5377 9.375 0.262695 10.6125 0.262695 12C0.262695 13.3875 1.55645 14.625 3.88145 15.525C4.29395 15.675 4.72519 15.825 5.1752 15.9563C5.0627 16.4063 4.96895 16.8563 4.89395 17.2875C4.5002 19.7625 4.93145 21.5063 6.13144 22.1813C6.4877 22.3875 6.88144 22.4813 7.33144 22.4813C8.66269 22.4813 10.3314 21.5063 12.0002 19.875C13.6877 21.5063 15.3564 22.4813 16.6689 22.4813C17.1189 22.4813 17.5127 22.3875 17.8689 22.1813C19.0689 21.4875 19.5002 19.7438 19.1064 17.2875C19.0314 16.8563 18.9377 16.4063 18.8252 15.9563C19.2752 15.825 19.7064 15.6938 20.1189 15.525C22.4627 14.625 23.7377 13.3875 23.7377 12C23.7377 10.6125 22.4627 9.375 20.1189 8.475ZM17.3439 2.75625C18.1127 3.20625 18.3752 4.59375 18.0564 6.5625C18.0002 6.95625 17.9064 7.36875 17.7939 7.8C16.8189 7.575 15.7877 7.425 14.7002 7.33125C14.0627 6.43125 13.4064 5.625 12.7502 4.89375C14.1377 3.525 15.5439 2.5875 16.6877 2.5875C16.9314 2.5875 17.1564 2.64375 17.3439 2.75625ZM15.2439 13.875C14.9064 14.475 14.5127 15.075 14.1002 15.675C13.4064 15.7313 12.7127 15.75 12.0002 15.75C11.2689 15.75 10.5752 15.7313 9.90019 15.675C9.48769 15.075 9.11269 14.475 8.77519 13.875C8.41894 13.2563 8.08144 12.6188 7.78144 12C8.08144 11.3813 8.41894 10.7438 8.77519 10.125C9.11269 9.525 9.50644 8.925 9.91894 8.325C10.6127 8.26875 11.3064 8.25 12.0189 8.25C12.7502 8.25 13.4439 8.26875 14.1189 8.325C14.5314 8.925 14.9064 9.525 15.2439 10.125C15.6002 10.7438 15.9377 11.3813 16.2377 12C15.9189 12.6188 15.6002 13.2375 15.2439 13.875ZM16.8002 13.2563C17.0814 13.9125 17.3064 14.55 17.5127 15.1875C16.8752 15.3375 16.2002 15.45 15.4877 15.5438C15.7127 15.1875 15.9564 14.8125 16.1627 14.4188C16.3877 14.025 16.5939 13.6313 16.8002 13.2563ZM12.0002 18.3375C11.5502 17.85 11.1189 17.325 10.7064 16.7813C11.1377 16.8 11.5689 16.8188 12.0002 16.8188C12.4314 16.8188 12.8627 16.8 13.2939 16.7813C12.8814 17.325 12.4502 17.85 12.0002 18.3375ZM8.51269 15.525C7.80019 15.4313 7.12519 15.3188 6.48769 15.1688C6.69394 14.55 6.91894 13.8938 7.20019 13.2375C7.40644 13.6125 7.61269 14.0063 7.83769 14.3813C8.06269 14.7938 8.28769 15.15 8.51269 15.525ZM7.20019 10.7438C6.91894 10.0875 6.69394 9.45 6.48769 8.8125C7.12519 8.6625 7.80019 8.55 8.51269 8.45625C8.28769 8.8125 8.04394 9.1875 7.83769 9.58125C7.61269 9.975 7.40644 10.3688 7.20019 10.7438ZM12.0002 5.6625C12.4502 6.15 12.8814 6.675 13.2939 7.21875C12.8627 7.2 12.4314 7.18125 12.0002 7.18125C11.5689 7.18125 11.1377 7.2 10.7064 7.21875C11.1189 6.675 11.5502 6.15 12.0002 5.6625ZM16.1627 9.6L15.4877 8.475C16.2002 8.56875 16.8752 8.68125 17.5127 8.83125C17.3064 9.45 17.0814 10.1063 16.8002 10.7625C16.5939 10.3688 16.3877 9.975 16.1627 9.6ZM5.94394 6.5625C5.6252 4.59375 5.88769 3.20625 6.65644 2.75625C6.84394 2.64375 7.06894 2.5875 7.31269 2.5875C8.43769 2.5875 9.84394 3.50625 11.2502 4.89375C10.5939 5.60625 9.93769 6.43125 9.30019 7.33125C8.21269 7.425 7.18144 7.59375 6.20644 7.8C6.09394 7.36875 6.01895 6.95625 5.94394 6.5625ZM1.3127 12C1.3127 11.1188 2.38145 10.1813 4.25645 9.4875C4.63145 9.3375 5.04394 9.20625 5.45645 9.09375C5.75644 10.0313 6.13144 11.025 6.58144 12.0188C6.13144 13.0125 5.7377 13.9875 5.45645 14.925C2.86895 14.175 1.3127 13.05 1.3127 12ZM6.65644 21.2438C5.88769 20.7938 5.6252 19.4063 5.94394 17.4375C6.0002 17.0438 6.09394 16.6313 6.20644 16.2C7.18144 16.425 8.21269 16.575 9.30019 16.6688C9.93769 17.5688 10.5939 18.375 11.2502 19.1063C9.86269 20.475 8.45644 21.4125 7.31269 21.4125C7.06894 21.4125 6.84394 21.3563 6.65644 21.2438ZM18.0564 17.4375C18.3752 19.4063 18.1127 20.7938 17.3439 21.2438C17.1564 21.3563 16.9314 21.4125 16.6877 21.4125C15.5627 21.4125 14.1564 20.4938 12.7502 19.1063C13.4064 18.3938 14.0627 17.5688 14.7002 16.6688C15.7877 16.575 16.8189 16.4063 17.7939 16.2C17.9064 16.6313 17.9814 17.0438 18.0564 17.4375ZM19.7439 14.5125C19.3689 14.6625 18.9564 14.7938 18.5439 14.9063C18.2439 13.9688 17.8689 12.975 17.4189 11.9813C17.8689 10.9875 18.2627 10.0125 18.5439 9.075C21.1314 9.825 22.6877 10.95 22.6877 12C22.6877 12.8813 21.6002 13.8188 19.7439 14.5125Z" fill="#18A0F5"/>
</g>
<defs>
<clipPath id="clip0_1288_4613">
<rect width="24" height="24" rx="12" fill="white"/>
</clipPath>
</defs>
</svg>
