<svg width="24" height="24" viewBox="0 0 24 24" fill="none" xmlns="http://www.w3.org/2000/svg">
<path d="M20.6088 13.7916C19.7738 13.7974 19.0481 14.0655 18.4405 14.4619C18.2175 13.8732 17.9946 13.3486 17.9552 12.9639C17.9115 12.5151 17.8591 12.2411 17.9115 11.7049C17.964 11.1686 18.2001 10.405 18.1957 10.3468C18.1913 10.2885 18.1432 10.0145 17.6624 10.0087C17.1815 10.0029 16.7662 10.1311 16.7181 10.3001C16.67 10.4692 16.5782 10.8539 16.517 11.2502C16.4339 11.8331 15.5552 13.914 15.0525 15.0039C14.8908 14.5784 14.7509 14.2054 14.7203 13.9081C14.6766 13.4593 14.6241 13.1854 14.6766 12.6491C14.729 12.1129 14.9651 11.3493 14.9607 11.291C14.9563 11.2327 14.9083 10.9588 14.4274 10.9529C13.9465 10.9471 13.5312 11.0753 13.4831 11.2444C13.435 11.4134 13.3826 11.8098 13.282 12.1945C13.1815 12.5792 12.0143 16.0531 11.7083 16.9508C11.5509 17.4112 11.4154 17.7784 11.3192 18.0291C11.3192 18.0291 11.3148 18.0466 11.3017 18.0757C11.2186 18.2914 11.1705 18.408 11.1705 18.408C11.1705 18.408 11.1705 18.408 11.1705 18.4138C11.105 18.5712 11.035 18.7169 11.0001 18.7169C10.9738 18.7169 10.9257 18.2972 11.0088 17.726C11.1837 16.5194 11.599 14.6426 11.5946 14.5784C11.5946 14.5435 11.6733 14.2171 11.3236 14.048C10.9826 13.879 10.8602 14.1588 10.8296 14.1588C10.799 14.1588 10.7771 14.2579 10.7771 14.2579C10.7771 14.2579 11.1574 12.1478 10.0514 12.1478C9.36071 12.1478 8.4077 13.1562 7.93557 14.0655C7.63831 14.2812 7.00443 14.7417 6.32683 15.2371C6.06891 15.4294 5.80224 15.6218 5.55306 15.8025C5.53557 15.7792 5.51809 15.75 5.5006 15.7267C4.1629 13.8207 1.68858 12.4743 1.7935 9.91542C1.83284 8.98282 2.07328 6.53473 6.54541 3.56205C10.2263 1.14311 13.1552 1.81342 13.6623 3.29976C14.388 5.42143 12.0929 9.36169 8.28967 9.93291C6.8383 10.1486 6.07765 9.40249 5.8853 9.12271C5.68421 8.83127 5.65361 8.81378 5.57929 8.87207C5.45688 8.9595 5.53557 9.2218 5.57929 9.37335C5.69295 9.7697 6.16071 10.4692 6.95197 10.8131C7.65142 11.1162 9.35197 11.2852 11.411 10.2243C13.7148 9.03528 15.5159 5.73036 14.9869 2.96169C14.458 0.152216 10.9607 -0.77456 7.65142 0.793382C5.68421 1.72599 3.55087 3.19484 2.01645 5.10668C0.193496 7.3799 -0.0950287 9.35586 0.0230041 10.1835C0.447048 13.1213 3.4853 15.0331 4.7006 16.4495C4.6394 16.4961 4.58257 16.5369 4.53448 16.5719C3.92683 16.9741 1.60989 18.5886 1.03284 20.2965C0.377103 22.2316 1.13776 23.6189 1.64049 23.8054C3.20115 24.3825 4.80552 23.3449 5.66672 21.6313C6.52792 19.9176 6.423 17.691 6.02519 16.671C6.02082 16.6593 6.01645 16.6477 6.0077 16.636C6.16508 16.5136 6.32683 16.3854 6.48421 16.263C6.79459 16.0182 7.1006 15.7908 7.3629 15.6043C7.21426 16.1464 7.10497 16.7934 7.05251 17.726C6.98694 18.8218 7.32355 20.244 7.76508 20.8036C7.9618 21.0484 8.1935 21.0542 8.34213 21.0542C8.85798 21.0542 9.08967 20.483 9.3476 19.8069C9.66235 18.9792 9.9465 18.0174 9.9465 18.0174C9.9465 18.0174 9.5924 20.6171 10.5542 20.6171C10.9039 20.6171 11.258 20.0109 11.4154 19.7019V19.7078C11.4154 19.7078 11.4241 19.6903 11.4416 19.6495C11.4766 19.5737 11.4984 19.5271 11.4984 19.5271V19.5154C11.6383 19.189 11.9531 18.4488 12.4208 17.2189C13.0241 15.6335 13.6055 13.6517 13.6055 13.6517C13.6055 13.6517 13.658 14.1355 13.8372 14.9398C13.9421 15.412 14.1607 15.9307 14.3356 16.432C14.1957 16.6943 14.1083 16.84 14.1083 16.84C14.1083 16.84 14.1083 16.84 14.1126 16.8458C13.999 17.044 13.8766 17.2597 13.741 17.4695C13.2645 18.2273 12.6962 19.0957 12.6175 19.3464C12.5257 19.6437 12.5476 19.8593 12.7225 20.0342C12.8492 20.1624 13.0766 20.1799 13.3083 20.1624C13.7367 20.1216 14.0383 19.9817 14.1869 19.8943C14.4186 19.7835 14.6897 19.6145 14.9432 19.3639C15.411 18.9034 15.6951 18.2447 15.6689 17.3763C15.6558 16.8983 15.5378 16.4203 15.3935 15.9715C15.4372 15.8899 15.4766 15.8083 15.5203 15.7267C16.2591 14.287 16.8317 12.7074 16.8317 12.7074C16.8317 12.7074 16.8842 13.1912 17.0634 13.9956C17.1509 14.4036 17.3301 14.8466 17.4875 15.2779C16.7924 16.0298 16.364 16.9041 16.211 17.4753C15.9356 18.5362 16.1498 19.0141 16.5563 19.1249C16.7399 19.1774 17.0022 19.0608 17.1946 18.95C17.4394 18.8451 17.7279 18.6644 18.0033 18.3963C18.4711 17.9358 18.9214 17.2947 18.8951 16.4262C18.882 16.0298 18.8033 15.6393 18.694 15.2604C19.2842 14.934 20.0449 14.7533 21.0154 14.9049C23.0962 15.2313 23.5072 16.9624 23.4285 17.691C23.3498 18.4196 22.9126 18.816 22.7684 18.9384C22.6241 19.0608 22.576 19.1016 22.5891 19.189C22.6066 19.3172 22.6766 19.3114 22.799 19.2881C22.9695 19.2473 23.8919 18.6994 23.9312 17.3588C23.9968 15.6451 22.7727 13.7741 20.6088 13.7916ZM4.55634 21.0076C3.86563 22.0101 2.90388 22.389 2.48858 22.0684C2.04268 21.7245 2.21754 20.244 3.06563 19.1832C3.58147 18.5362 4.24596 17.9358 4.68749 17.5686C4.78803 17.487 4.93667 17.3704 5.1159 17.2247C5.1465 17.2014 5.16399 17.1897 5.16399 17.1897C5.19896 17.1606 5.23393 17.1315 5.26891 17.1023C5.57929 18.6178 5.28202 19.9526 4.55634 21.0076ZM9.58366 16.4495C9.34322 17.2305 8.84049 19.2298 8.53448 19.1191C8.27218 19.0258 8.11044 17.5103 8.48202 16.0123C8.67 15.2604 9.06781 14.3628 9.29951 14.0131C9.67546 13.4535 10.0908 13.267 10.1913 13.4943C10.3181 13.7916 9.73229 15.9599 9.58366 16.4495ZM13.7323 19.0957C13.6317 19.1657 13.5356 19.2123 13.4919 19.1774C13.4613 19.154 13.5356 19.0608 13.5356 19.0608C13.5356 19.0608 14.0558 18.3147 14.2613 17.9766C14.3793 17.7784 14.5192 17.5453 14.6678 17.283V17.3588C14.6678 18.2506 14.0208 18.8509 13.7323 19.0957ZM16.9323 18.1223C16.858 18.0524 16.8711 17.8192 17.1203 17.0906C17.2164 16.805 17.4438 16.3271 17.8328 15.8666C17.8766 16.0531 17.9072 16.2338 17.9028 16.4029C17.8984 17.5278 17.2951 17.9475 16.9323 18.1223Z" fill="#18A0F5"/>
</svg>
