<svg width="24" height="24" viewBox="0 0 24 24" fill="none" xmlns="http://www.w3.org/2000/svg">
<g clip-path="url(#clip0_1288_4621)">
<path d="M12.001 4.80037C8.80091 4.80037 6.8016 6.39974 6.00098 9.59981C7.2006 8.00024 8.60104 7.40043 10.2006 7.80037C11.1139 8.02799 11.7666 8.69024 12.4894 9.42412C13.6658 10.6179 15.0274 12 18.001 12C21.2009 12 23.2004 10.4004 24.001 7.19962C22.8012 8.80012 21.4009 9.39993 19.8012 8.99999C18.888 8.77218 18.2361 8.11012 17.5124 7.37624C16.3367 6.18243 14.9755 4.80037 12.001 4.80037ZM6.00098 12C2.8011 12 0.801602 13.5996 0.000976562 16.8004C1.2006 15.1999 2.60085 14.6001 4.2006 15C5.11391 15.2278 5.7666 15.8899 6.48941 16.6237C7.66579 17.8176 9.02741 19.1996 12.001 19.1996C15.2009 19.1996 17.2004 17.6002 18.001 14.4002C16.8012 15.9997 15.4009 16.5996 13.8012 16.1996C12.888 15.972 12.2361 15.3097 11.5124 14.5759C10.3367 13.3821 8.97548 12 6.00098 12Z" fill="#18A0F5"/>
</g>
<defs>
<clipPath id="clip0_1288_4621">
<rect width="24" height="24" fill="white"/>
</clipPath>
</defs>
</svg>
